<svg width="569.000000" height="310.000000" viewBox="0 0 569 310" fill="none" xmlns="http://www.w3.org/2000/svg" xmlns:xlink="http://www.w3.org/1999/xlink">
	<desc>
			Created with Pixso.
	</desc>
	<defs>
		<clipPath id="clip181_359">
			<rect id="Abstract Design" width="569.000000" height="310.000000" transform="matrix(-1 0 0 1 569 0)" fill="white" fill-opacity="0"/>
		</clipPath>
	</defs>
	<rect id="Abstract Design" width="569.000000" height="310.000000" transform="matrix(-1 0 0 1 569 0)" fill="#FFFFFF" fill-opacity="0"/>
	<g clip-path="url(#clip181_359)">
		<path id="Vector" d="M429.731 4.69153C429.313 4.09253 428.71 4.3103 429.086 1.71851C430.493 -2.52661 428.701 2.51562 428.867 1.79468C429.075 3.04712 429.843 2.43726 430.313 2.36975C430.169 2.93164 429.975 3.83777 429.731 4.69153Z" fill="#1A1A1A" fill-opacity="1.000000" fill-rule="evenodd"/>
		<path id="Vector" d="M519.054 264.439C522.307 259.027 524.96 253.074 527.563 247.764C528.947 249.903 532.916 273.306 538.397 310L526.537 310C522.945 283.064 520.274 266.361 519.054 264.439Z" fill="#1A1A1A" fill-opacity="1.000000" fill-rule="evenodd"/>
		<path id="Vector" d="M529.21 248.914C531.839 243.89 534.282 239.104 536.755 235.469C538.1 237.419 542.901 266.104 549.503 310L538.782 310C533.985 273.969 530.498 250.977 529.21 248.914Z" fill="#1A1A1A" fill-opacity="1.000000" fill-rule="evenodd"/>
		<path id="Vector" d="M537.938 234.01C540.153 230.849 542.269 227.848 544.358 224.995C546.832 239.316 549.337 253.447 551.74 267.491C554.187 281.753 556.599 295.943 558.948 309.969L558.791 309.998L549.153 309.998C545.562 285.039 541.746 259.624 537.938 234.008L537.938 234.01Z" fill="#1A1A1A" fill-opacity="1.000000" fill-rule="evenodd"/>
		<path id="Vector" d="M545.227 223.51C547.077 220.554 548.843 217.925 550.522 215.448C553.708 231.17 556.888 246.719 559.95 261.969C563.041 277.375 566.075 292.604 569 307.537L569 308.149C566.222 308.674 563.367 309.194 560.437 309.669C558.045 295.531 555.517 281.171 552.966 266.687C550.459 252.447 547.79 238.07 545.227 223.51Z" fill="#1A1A1A" fill-opacity="1.000000" fill-rule="evenodd"/>
		<path id="Vector" d="M551.358 214.351C552.942 211.983 554.188 209.594 555.291 207.057C559.167 223.96 563.09 240.716 566.719 257.208L569 267.578L569 300.992C566.41 287.947 563.722 274.713 561.005 261.343C557.872 245.909 554.633 230.181 551.356 214.353L551.358 214.351Z" fill="#1A1A1A" fill-opacity="1.000000" fill-rule="evenodd"/>
		<path id="Vector" d="M556.099 206.098C557.441 203.972 558.646 201.953 559.71 199.729C562.831 212.397 565.944 224.956 569 237.39L569 262.475L567.688 256.651C563.962 240.106 560.066 223.191 556.099 206.1L556.099 206.098Z" fill="#1A1A1A" fill-opacity="1.000000" fill-rule="evenodd"/>
		<path id="Vector" d="M560.305 198.804C561.368 197.048 562.094 194.986 562.816 192.934C564.9 200.749 566.961 208.518 569 216.235L569 233.786C566.121 222.251 563.199 210.583 560.305 198.806L560.305 198.804Z" fill="#1A1A1A" fill-opacity="1.000000" fill-rule="evenodd"/>
		<path id="Vector" d="M563.593 192.383C564.312 190.599 564.962 188.77 565.424 187.003L569 199.74L569 212.711C567.215 205.972 565.412 199.192 563.593 192.383Z" fill="#1A1A1A" fill-opacity="1.000000" fill-rule="evenodd"/>
		<path id="Vector" d="M565.717 185.603C566.294 183.882 566.751 182.236 567.149 180.761L569 187.088L569 197.264L565.717 185.603Z" fill="#1A1A1A" fill-opacity="1.000000" fill-rule="evenodd"/>
		<path id="Vector" d="M567.276 179.842C567.608 178.282 567.758 176.714 567.968 175.2L569 178.631L569 185.697L567.276 179.842Z" fill="#1A1A1A" fill-opacity="1.000000" fill-rule="evenodd"/>
		<path id="Vector" d="M568.053 174.627C568.199 173.135 568.101 171.461 567.948 169.871L569 173.266L569 177.76L568.053 174.627Z" fill="#1A1A1A" fill-opacity="1.000000" fill-rule="evenodd"/>
		<path id="Vector" d="M567.887 168.78C567.871 167.516 567.606 166.042 567.342 164.48L569 169.808L569 172.358L567.887 168.78Z" fill="#1A1A1A" fill-opacity="1.000000" fill-rule="evenodd"/>
		<path id="Vector" d="M567.315 164.081C567.066 162.75 566.646 161.47 566.163 160.017L568.998 169.152L568.998 169.455L567.313 164.081L567.315 164.081Z" fill="#1A1A1A" fill-opacity="1.000000" fill-rule="evenodd"/>
		<path id="Vector" d="M565.888 159.159C565.301 157.896 564.653 156.513 564.201 155.432C565.795 160.605 567.398 165.778 569 170.94L569 169.18C567.954 165.841 566.913 162.504 565.888 159.159Z" fill="#1A1A1A" fill-opacity="1.000000" fill-rule="evenodd"/>
		<path id="Vector" d="M563.702 154.609C563.015 153.409 562.101 152.059 561.19 150.784C563.798 159.324 566.412 167.86 569.002 176.372L569.002 171.798C567.23 166.07 565.456 160.331 563.704 154.609L563.702 154.609Z" fill="#1A1A1A" fill-opacity="1.000000" fill-rule="evenodd"/>
		<path id="Vector" d="M427.756 310C434.062 303.867 440.056 298.16 445.743 292.336C449.243 298.093 452.903 304.032 456.554 310L427.756 310Z" fill="#1A1A1A" fill-opacity="1.000000" fill-rule="evenodd"/>
		<path id="Vector" d="M448.989 289.394C455.5 282.546 461.539 276.87 467.222 271.627C473.643 280.483 479.592 289.08 485.87 298.609C483.063 302.05 480.198 305.914 477.199 310.002L461.86 310.002C457.538 302.93 453.251 296.093 448.989 289.394Z" fill="#1A1A1A" fill-opacity="1.000000" fill-rule="evenodd"/>
		<path id="Vector" d="M469.885 268.82C475.515 263.788 480.474 259.005 485.289 254.403C490.917 261.954 496.691 270.009 502.322 277.954C498.023 283.454 493.279 289.078 488.399 295.292C482.195 286.312 476.255 277.606 469.885 268.82Z" fill="#1A1A1A" fill-opacity="1.000000" fill-rule="evenodd"/>
		<path id="Vector" d="M487.62 252.286C492.061 248.394 496.317 244.443 500.303 240.773C505.292 247.388 510.468 253.813 515.711 260.667C512.061 265.178 508.337 269.939 504.369 275.295C498.78 267.583 493.13 259.626 487.617 252.286L487.62 252.286Z" fill="#1A1A1A" fill-opacity="1.000000" fill-rule="evenodd"/>
		<path id="Vector" d="M514.136 227.271C517.192 224.241 520.2 221.539 523.104 218.925C527.224 223.806 531.724 229.175 535.829 234.365C533.502 237.497 530.8 240.843 528.107 244.654C523.431 238.525 518.863 233.18 514.136 227.271Z" fill="#1A1A1A" fill-opacity="1.000000" fill-rule="evenodd"/>
		<path id="Vector" d="M524.794 218.027C527.391 215.483 530.018 213.175 532.301 210.596C535.984 214.946 539.848 219.428 543.438 223.778C541.479 226.716 539.297 229.66 537.018 232.799C533.034 227.911 528.788 222.813 524.794 218.027Z" fill="#1A1A1A" fill-opacity="1.000000" fill-rule="evenodd"/>
		<path id="Vector" d="M533.955 209.11C536.065 206.773 538.089 204.646 540.027 202.531C543.394 206.366 546.865 210.419 550.057 214.198C548.51 216.623 546.684 219.079 544.77 221.784C541.183 217.481 537.387 213.17 533.952 209.11L533.955 209.11Z" fill="#1A1A1A" fill-opacity="1.000000" fill-rule="evenodd"/>
		<path id="Vector" d="M541.246 201.352C543.09 199.54 544.73 197.654 546.482 195.905C549.398 199.191 552.475 202.559 555.395 205.845C554.165 208.213 552.728 210.539 551.407 213.042C548.021 209.234 544.488 205.198 541.246 201.352Z" fill="#1A1A1A" fill-opacity="1.000000" fill-rule="evenodd"/>
		<path id="Vector" d="M547.162 194.99C548.704 193.326 550.108 191.394 551.318 189.674C554.033 192.605 556.586 195.493 559.486 198.615C558.294 200.719 557.089 202.707 555.813 204.868C552.963 201.683 550.017 198.379 547.16 194.99L547.162 194.99Z" fill="#1A1A1A" fill-opacity="1.000000" fill-rule="evenodd"/>
		<path id="Vector" d="M552.098 188.319C553.41 186.788 554.537 185.335 555.714 183.836C558.231 186.57 560.716 189.382 562.891 191.778C562.167 193.67 561.183 195.448 560.384 197.482C557.678 194.428 554.871 191.285 552.096 188.319L552.098 188.319Z" fill="#1A1A1A" fill-opacity="1.000000" fill-rule="evenodd"/>
		<path id="Vector" d="M556.184 183.364C557.227 181.872 558.078 180.253 558.99 178.944C560.994 181.031 563.018 183.34 564.99 185.57C564.404 187.302 563.879 189.142 563.161 190.926C560.86 188.388 558.57 185.849 556.184 183.364Z" fill="#1A1A1A" fill-opacity="1.000000" fill-rule="evenodd"/>
		<path id="Vector" d="M559.377 178.058C560.28 176.805 560.818 175.359 561.353 174.015C563.092 175.834 564.905 177.738 566.604 179.595C566.272 181.186 565.754 182.751 565.426 184.627C563.457 182.495 561.309 180.094 559.375 178.058L559.377 178.058Z" fill="#1A1A1A" fill-opacity="1.000000" fill-rule="evenodd"/>
		<path id="Vector" d="M561.744 173.434C562.151 172.033 562.623 170.855 563.03 169.535C564.575 171.147 565.948 172.726 567.569 174.429C567.354 175.875 567.145 177.435 566.812 178.94C565.05 176.997 563.358 175.157 561.744 173.436L561.744 173.434Z" fill="#1A1A1A" fill-opacity="1.000000" fill-rule="evenodd"/>
		<path id="Vector" d="M563.221 168.592C563.448 167.301 563.737 166.157 563.783 164.792C565.196 166.323 566.43 167.662 567.604 168.908C567.758 170.52 567.72 171.931 567.635 173.51C566.261 172.012 564.645 170.195 563.221 168.594L563.221 168.592Z" fill="#1A1A1A" fill-opacity="1.000000" fill-rule="evenodd"/>
		<path id="Vector" d="M542.409 133.096C540.625 132.136 538.949 131.232 537.111 130.496C537.113 130.759 537.059 130.918 536.893 130.901C538.844 131.816 540.911 133.027 542.534 133.896C542.527 133.541 542.527 133.438 542.409 133.096Z" fill="#1A1A1A" fill-opacity="1.000000" fill-rule="evenodd"/>
		<path id="Vector" d="M564.002 160.155C563.761 158.926 563.586 157.748 563.302 156.713C564.023 157.427 564.99 158.473 565.782 159.37C566.207 160.76 566.627 162.119 567.058 163.526C565.894 162.291 565.034 161.302 564.004 160.155L564.002 160.155Z" fill="#1A1A1A" fill-opacity="1.000000" fill-rule="evenodd"/>
		<path id="Vector" d="M562.971 155.781C562.568 154.644 562.116 153.49 561.663 152.379C562.383 153.208 562.925 153.927 563.647 154.729C564.399 156.062 564.983 157.329 565.574 158.726C564.657 157.645 563.932 156.804 562.969 155.781L562.971 155.781Z" fill="#1A1A1A" fill-opacity="1.000000" fill-rule="evenodd"/>
		<path id="Vector" d="M554.44 142.336C553.398 141.249 552.308 140.249 551.163 139.352C551.454 139.757 551.747 140.182 551.981 140.524C553.246 141.65 554.453 142.695 555.61 143.771C555.201 143.32 554.965 142.983 554.44 142.336Z" fill="#1A1A1A" fill-opacity="1.000000" fill-rule="evenodd"/>
		<path id="Vector" d="M362.925 299.854C373.943 292.429 383.482 285.396 393.438 278.932C399.374 289.017 405.545 298.985 411.777 310.002L368.348 310.002C366.557 306.583 364.749 303.2 362.925 299.854Z" fill="#1A1A1A" fill-opacity="1.000000" fill-rule="evenodd"/>
		<path id="Vector" d="M397.899 276.068C406.656 269.889 414.846 263.971 422.425 258.548C428.782 268.02 435.077 277.458 441.347 287.479C433.988 294.298 426.457 301.891 417.849 309.264C411.25 297.653 404.39 286.815 397.899 276.068Z" fill="#1A1A1A" fill-opacity="1.000000" fill-rule="evenodd"/>
		<path id="Vector" d="M426.052 256.019C433.314 251.811 439.741 247.17 445.991 242.848C451.757 250.576 457.713 258.678 463.471 267.132C457.608 272.631 451.595 278.244 444.855 284.682C438.434 274.598 432.431 265.097 426.052 256.019Z" fill="#1A1A1A" fill-opacity="1.000000" fill-rule="evenodd"/>
		<path id="Vector" d="M448.837 240.551C454.856 236.669 460.345 232.736 465.632 229.432C470.924 236.046 476.554 243.545 481.929 251.195C477.007 255.522 471.762 259.746 466.101 264.594C460.56 256.518 454.643 248.492 448.837 240.551Z" fill="#1A1A1A" fill-opacity="1.000000" fill-rule="evenodd"/>
		<path id="Vector" d="M468.151 227.82C473.188 224.829 477.737 221.645 482.25 219.044C487.268 224.949 492.078 231.089 497.203 237.686C493.174 241.202 488.74 244.787 484.291 248.771C478.971 241.785 473.456 234.387 468.151 227.82Z" fill="#1A1A1A" fill-opacity="1.000000" fill-rule="evenodd"/>
		<path id="Vector" d="M528.167 127.128C529.337 127.009 530.396 126.882 531.341 126.699C533.279 128.61 535.058 130.391 536.956 132.203C536.009 132.334 535.116 132.643 534.11 132.879C532.154 131.031 530.267 129.111 528.167 127.128Z" fill="#1A1A1A" fill-opacity="1.000000" fill-rule="evenodd"/>
		<path id="Vector" d="M498.03 208.389C501.594 206.257 504.82 203.999 508.137 201.925C512.245 206.812 516.476 211.724 520.627 216.718C517.667 219.103 514.599 221.743 511.295 224.396C506.923 219.012 502.537 213.745 498.03 208.389Z" fill="#1A1A1A" fill-opacity="1.000000" fill-rule="evenodd"/>
		<path id="Vector" d="M509.986 201.261C512.942 199.185 515.924 197.316 518.759 195.406C522.287 199.477 525.978 203.735 529.519 208.035C527.108 210.441 524.547 212.722 521.882 215.203C517.969 210.674 513.983 205.959 509.986 201.261Z" fill="#1A1A1A" fill-opacity="1.000000" fill-rule="evenodd"/>
		<path id="Vector" d="M520.523 194.276C523.186 192.657 525.33 190.765 527.696 189.223C531.059 192.978 534.451 196.693 537.632 200.398C535.693 202.428 533.544 204.41 531.238 206.634C527.574 202.165 523.997 198.144 520.526 194.276L520.523 194.276Z" fill="#1A1A1A" fill-opacity="1.000000" fill-rule="evenodd"/>
		<path id="Vector" d="M529.035 188.192C531.254 186.637 533.268 185.06 535.386 183.843C538.323 187.027 541.41 190.342 544.531 194.069C542.843 195.824 541.073 197.538 539.098 199.533C535.854 195.857 532.397 191.862 529.035 188.192Z" fill="#1A1A1A" fill-opacity="1.000000" fill-rule="evenodd"/>
		<path id="Vector" d="M536.134 183.174C537.989 181.7 539.77 180.458 541.296 179.029C543.987 181.946 546.763 184.969 549.442 187.809C548.045 189.46 546.636 191.285 544.965 193.073C542.036 189.643 539.074 186.408 536.134 183.172L536.134 183.174Z" fill="#1A1A1A" fill-opacity="1.000000" fill-rule="evenodd"/>
		<path id="Vector" d="M542.388 178.051C544.018 176.989 545.332 175.571 546.641 174.353C549.206 177.028 551.796 179.842 554.347 182.706C552.979 183.947 551.916 185.605 550.658 187.114C547.977 184.137 545.076 180.992 542.388 178.053L542.388 178.051Z" fill="#1A1A1A" fill-opacity="1.000000" fill-rule="evenodd"/>
		<path id="Vector" d="M547.357 173.97C548.777 172.935 549.704 171.556 550.868 170.374C553.064 172.661 555.337 175.096 557.441 177.418C556.404 178.716 555.488 180.166 554.442 181.665C552.082 179.093 549.739 176.514 547.357 173.97Z" fill="#1A1A1A" fill-opacity="1.000000" fill-rule="evenodd"/>
		<path id="Vector" d="M557.314 162.537C557.79 161.405 558.21 160.398 558.57 159.359C560.078 160.954 561.41 162.365 562.808 163.859C562.58 165.07 562.228 166.185 562.121 167.603C560.41 165.837 558.884 164.173 557.312 162.539L557.314 162.537Z" fill="#1A1A1A" fill-opacity="1.000000" fill-rule="evenodd"/>
		<path id="Vector" d="M558.96 158.994C559.08 157.782 559.443 156.953 559.509 155.94C560.648 157.129 561.854 158.414 563.002 159.667C563.062 160.821 562.95 162.028 562.834 163.177C561.557 161.777 560.285 160.353 558.96 158.994Z" fill="#1A1A1A" fill-opacity="1.000000" fill-rule="evenodd"/>
		<path id="Vector" d="M559.332 151.963C559.237 151.209 558.962 150.098 558.756 149.264C559.526 150.116 560.362 151.076 561.075 151.86C561.642 153.039 562.037 154.158 562.381 155.291C561.366 154.256 560.403 153.119 559.334 151.965L559.332 151.963Z" fill="#1A1A1A" fill-opacity="1.000000" fill-rule="evenodd"/>
		<path id="Vector" d="M557.389 146.269C556.964 145.538 556.308 144.44 555.424 143.349C555.895 143.965 556.483 144.629 556.724 145.104C557.782 146.374 558.557 147.385 559.395 148.528C558.8 147.82 558.034 146.997 557.387 146.269L557.389 146.269Z" fill="#1A1A1A" fill-opacity="1.000000" fill-rule="evenodd"/>
		<path id="Vector" d="M551.421 138.705C550.614 137.814 549.759 137.023 548.965 136.316C549.48 136.984 549.942 137.618 550.456 138.167C551.43 139.071 552.407 140.049 553.27 140.831C552.574 140.053 552.056 139.465 551.419 138.705L551.421 138.705Z" fill="#1A1A1A" fill-opacity="1.000000" fill-rule="evenodd"/>
		<path id="Vector" d="M553.523 143.216C553.389 142.536 553.082 141.804 552.946 141.118C553.76 142.079 554.633 143.043 555.449 143.913C555.755 144.708 556.184 145.577 556.501 146.435C555.562 145.435 554.513 144.366 553.523 143.216Z" fill="#1A1A1A" fill-opacity="1.000000" fill-rule="evenodd"/>
		<path id="Vector" d="M180.79 195.476C198.754 191.69 215.26 187.959 230.807 184.409C236.798 194.082 242.914 203.319 248.641 213.231C233.561 217.433 216.923 222.847 198.5 228.362C192.506 216.947 186.696 206.148 180.788 195.476L180.79 195.476Z" fill="#1A1A1A" fill-opacity="1.000000" fill-rule="evenodd"/>
		<path id="Vector" d="M284.387 184.553C296.928 181.769 307.961 179.025 318.942 176.949C324.327 184.25 330.192 191.812 336.039 199.74C325.325 202.999 314.079 206.497 301.993 210.367C296.363 201.672 290.233 192.742 284.387 184.551L284.387 184.553Z" fill="#1A1A1A" fill-opacity="1.000000" fill-rule="evenodd"/>
		<path id="Vector" d="M299.141 127.729C309.128 127.329 318.473 126.723 327.489 126.244C332.562 131.79 337.527 137.198 342.301 142.817C333.556 143.612 324.268 144.623 314.387 146.069C309.456 139.735 304.534 133.602 299.141 127.729Z" fill="#1A1A1A" fill-opacity="1.000000" fill-rule="evenodd"/>
		<path id="Vector" d="M246.073 310C258.877 303.202 270.857 296.773 282.141 290.576C285.364 296.921 288.596 303.392 291.789 310L246.076 310L246.073 310Z" fill="#1A1A1A" fill-opacity="1.000000" fill-rule="evenodd"/>
		<path id="Vector" d="M289.805 286.597C304.505 278.771 317.456 271.226 330.128 264.474C336.776 275.988 343.586 288.37 350.362 300.728C346.215 303.799 341.993 306.879 337.664 310L301.215 310C297.354 302.002 293.559 294.229 289.805 286.597Z" fill="#1A1A1A" fill-opacity="1.000000" fill-rule="evenodd"/>
		<path id="Vector" d="M335.99 261.445C347.464 255.808 358.056 250.572 367.785 245.382C374.055 254.911 380.732 265.139 386.764 275.691C377.285 282.265 367.09 289.01 355.879 296.276C349.402 284.105 342.641 272.799 335.99 261.445Z" fill="#1A1A1A" fill-opacity="1.000000" fill-rule="evenodd"/>
		<path id="Vector" d="M373.111 243.935C382.59 239.083 391.228 234.84 399.418 230.786C405.063 238.819 411.02 247.13 417.007 255.583C409.143 260.946 400.533 266.857 391.466 273.075C385.245 262.586 379.245 253.307 373.111 243.933L373.111 243.935Z" fill="#1A1A1A" fill-opacity="1.000000" fill-rule="evenodd"/>
		<path id="Vector" d="M404.469 227.831C412.037 224.337 419.184 220.931 425.952 217.542C431.353 224.47 436.777 231.782 442.209 239.294C435.802 243.735 429.098 247.978 421.778 252.214C416.106 244.181 410.241 235.961 404.469 227.833L404.469 227.831Z" fill="#1A1A1A" fill-opacity="1.000000" fill-rule="evenodd"/>
		<path id="Vector" d="M429.864 215.558C436.016 212.077 441.904 209.509 447.747 206.965C452.831 213.443 458.048 220.062 463.409 226.75C457.884 229.854 452.106 233.457 446.283 237.458C440.89 230.055 435.255 222.634 429.864 215.558Z" fill="#1A1A1A" fill-opacity="1.000000" fill-rule="evenodd"/>
		<path id="Vector" d="M450.305 206.253C455.495 203.737 460.62 201.372 465.609 199.279C470.028 204.859 474.703 210.419 479.316 215.982C474.786 218.79 469.989 221.813 465.124 225.054C460.119 218.685 455.066 212.312 450.307 206.253L450.305 206.253Z" fill="#1A1A1A" fill-opacity="1.000000" fill-rule="evenodd"/>
		<path id="Vector" d="M483.28 190.948C487.403 189.449 491.004 187.77 494.581 186.117C498.429 190.455 502.43 195.012 506.115 199.305C502.867 201.402 499.708 203.661 495.832 205.649C491.768 200.755 487.567 195.811 483.28 190.946L483.28 190.948Z" fill="#1A1A1A" fill-opacity="1.000000" fill-rule="evenodd"/>
		<path id="Vector" d="M496.481 185.341C499.955 183.695 503.092 182.055 506.178 180.842C509.762 184.734 513.077 188.523 516.785 192.731C513.959 194.572 511.05 196.349 508.042 198.386C504.103 193.967 500.401 189.617 496.481 185.341Z" fill="#1A1A1A" fill-opacity="1.000000" fill-rule="evenodd"/>
		<path id="Vector" d="M507.716 180.236C510.531 178.91 513.087 177.533 515.737 176.383C519.104 179.99 522.449 183.529 525.443 187.101C523.258 188.713 520.688 190.257 518.154 191.915C514.559 187.931 511.118 184.072 507.719 180.236L507.716 180.236Z" fill="#1A1A1A" fill-opacity="1.000000" fill-rule="evenodd"/>
		<path id="Vector" d="M517.669 175.88C520.237 174.726 522.541 173.639 524.772 172.393C527.44 175.279 530.608 178.67 533.318 181.774C531.385 183.174 529.188 184.568 526.968 186.147C523.967 182.66 520.743 179.225 517.669 175.88Z" fill="#1A1A1A" fill-opacity="1.000000" fill-rule="evenodd"/>
		<path id="Vector" d="M526.006 171.763C528.149 170.809 530.286 169.866 532.168 168.906C534.784 171.685 537.3 174.434 539.9 177.15C538.253 178.396 536.353 179.546 534.559 181.083C531.726 177.882 528.977 174.823 526.006 171.766L526.006 171.763Z" fill="#1A1A1A" fill-opacity="1.000000" fill-rule="evenodd"/>
		<path id="Vector" d="M532.717 168.374C534.587 167.483 536.206 166.488 537.993 165.682C540.257 168.004 542.654 170.559 545.069 173.068C543.577 174.188 542.136 175.451 540.506 176.738C537.969 173.944 535.333 171.21 532.717 168.374Z" fill="#1A1A1A" fill-opacity="1.000000" fill-rule="evenodd"/>
		<path id="Vector" d="M538.766 164.898C540.188 163.846 541.598 162.857 543.005 162.115C545.323 164.55 547.421 166.762 549.534 169.019C548.43 170.208 547.198 171.312 545.898 172.489C543.483 169.892 541.089 167.418 538.766 164.896L538.766 164.898Z" fill="#1A1A1A" fill-opacity="1.000000" fill-rule="evenodd"/>
		<path id="Vector" d="M543.822 161.583C545.103 160.886 546.316 160.154 547.351 159.24C549.315 161.32 551.109 163.201 553.218 165.453C552.308 166.466 551.392 167.455 550.353 168.477C548.241 166.281 546.146 164.121 543.822 161.583Z" fill="#1A1A1A" fill-opacity="1.000000" fill-rule="evenodd"/>
		<path id="Vector" d="M347.926 153.934C356.286 152.784 364.253 151.802 371.985 150.591C376.809 156.382 381.667 161.967 386.781 167.78C379.412 169.335 371.567 170.803 363.212 172.868C358.08 166.39 352.935 160.154 347.924 153.934L347.926 153.934Z" fill="#1A1A1A" fill-opacity="1.000000" fill-rule="evenodd"/>
		<path id="Vector" d="M503.072 124.116C505.348 124.134 507.504 124.138 509.543 124.173C511.932 126.569 514.395 128.906 516.698 131.232C514.708 131.197 512.981 131.531 510.803 131.609C508.287 129.093 505.73 126.584 503.07 124.114L503.072 124.116Z" fill="#1A1A1A" fill-opacity="1.000000" fill-rule="evenodd"/>
		<path id="Vector" d="M503.432 116.674C505.494 116.924 507.45 117.114 509.345 117.268C511.663 119.447 513.879 121.54 516.049 123.596C514.306 123.607 512.505 123.585 510.648 123.511C508.32 121.293 505.847 118.954 503.432 116.674Z" fill="#1A1A1A" fill-opacity="1.000000" fill-rule="evenodd"/>
		<path id="Vector" d="M107.233 310C113.33 307.428 119.286 304.895 125.096 302.392C126.071 304.89 127.029 307.428 127.975 310L107.231 310L107.233 310Z" fill="#1A1A1A" fill-opacity="1.000000" fill-rule="evenodd"/>
		<path id="Vector" d="M352.411 99.2778C359.621 99.6545 366.468 99.9856 372.988 100.295C377.009 104.285 380.988 108.332 385.092 112.196C378.568 112.235 372.041 112.144 365.02 112.048C360.946 107.727 356.635 103.501 352.413 99.2778L352.411 99.2778Z" fill="#1A1A1A" fill-opacity="1.000000" fill-rule="evenodd"/>
		<path id="Vector" d="M212.412 265.639C230.761 258.134 247.587 251.497 263.599 245.362C269.837 256.897 276.516 269.292 282.605 282.572C266.887 290.792 250.422 299.138 232.014 308.068C225.791 293.638 219.068 279.342 212.414 265.639L212.412 265.639Z" fill="#1A1A1A" fill-opacity="1.000000" fill-rule="evenodd"/>
		<path id="Vector" d="M316.297 224.745C327.905 220.428 338.957 216.588 349.203 212.809C355.17 221.349 361.251 230.403 367.166 239.558C357.373 244.571 346.587 249.664 335.563 254.815C329.142 244.73 322.732 234.35 316.299 224.747L316.297 224.745Z" fill="#1A1A1A" fill-opacity="1.000000" fill-rule="evenodd"/>
		<path id="Vector" d="M386.746 200.529C394.768 197.813 402.087 195.332 409.056 192.777C414.109 199.002 419.396 205.765 424.469 212.718C417.832 215.924 410.567 219.326 403.233 222.841C397.931 215.118 392.219 207.549 386.744 200.529L386.746 200.529Z" fill="#1A1A1A" fill-opacity="1.000000" fill-rule="evenodd"/>
		<path id="Vector" d="M413.037 191.542C419.681 189.312 425.904 187.341 431.869 185.54C436.865 191.44 441.715 197.429 446.711 203.386C441.037 205.811 435.255 208.246 429.001 211.275C423.583 204.319 418.393 197.619 413.037 191.542Z" fill="#1A1A1A" fill-opacity="1.000000" fill-rule="evenodd"/>
		<path id="Vector" d="M434.438 184.884C439.968 183.1 445.334 181.345 450.6 179.561C454.985 184.762 459.373 189.874 463.857 195.177C459.008 197.349 453.887 199.786 448.677 202.134C443.799 196.251 438.981 190.438 434.44 184.882L434.438 184.884Z" fill="#1A1A1A" fill-opacity="1.000000" fill-rule="evenodd"/>
		<path id="Vector" d="M454.078 178.504C458.797 177.082 463.419 175.714 467.641 174.353C472.051 179.269 476.237 183.843 480.367 188.759C476.408 190.32 472.146 192.091 467.48 194.321C463.08 188.726 458.442 183.483 454.078 178.504Z" fill="#1A1A1A" fill-opacity="1.000000" fill-rule="evenodd"/>
		<path id="Vector" d="M469.709 173.913C473.999 172.73 477.842 171.376 481.705 170.265C485.489 174.353 489.349 178.748 492.944 183.007C489.455 184.533 485.868 186.23 481.703 187.644C477.836 183.224 473.729 178.439 469.711 173.913L469.709 173.913Z" fill="#1A1A1A" fill-opacity="1.000000" fill-rule="evenodd"/>
		<path id="Vector" d="M483.762 169.603C487.458 168.607 490.938 167.745 494.224 166.784C497.691 170.568 501.259 174.29 504.551 177.995C501.543 179.138 498.246 180.487 494.974 182.105C491.314 177.816 487.548 173.737 483.762 169.603Z" fill="#1A1A1A" fill-opacity="1.000000" fill-rule="evenodd"/>
		<path id="Vector" d="M495.737 166.31C498.87 165.447 501.867 164.532 504.734 163.53C507.939 166.982 511.175 170.424 514.195 173.78C511.671 174.991 508.884 176.193 506.023 177.32C502.6 173.695 499.216 169.969 495.735 166.31L495.737 166.31Z" fill="#1A1A1A" fill-opacity="1.000000" fill-rule="evenodd"/>
		<path id="Vector" d="M506.702 163.184C509.476 162.343 511.938 161.396 514.318 160.646C517.265 163.602 520.165 166.632 523.033 169.57C520.922 170.879 518.503 172.062 515.885 173.12C512.798 169.736 509.797 166.473 506.699 163.184L506.702 163.184Z" fill="#1A1A1A" fill-opacity="1.000000" fill-rule="evenodd"/>
		<path id="Vector" d="M516.068 160.503C518.374 159.708 520.666 159.039 522.889 158.427C525.318 160.971 528.001 163.75 530.466 166.453C528.469 167.277 526.52 168.213 524.38 169.128C521.689 166.303 518.898 163.463 516.068 160.501L516.068 160.503Z" fill="#1A1A1A" fill-opacity="1.000000" fill-rule="evenodd"/>
		<path id="Vector" d="M523.495 157.963C525.413 157.179 527.316 156.454 529.271 155.809C531.595 158.216 534.104 160.908 536.396 163.339C534.668 164.208 532.993 165.133 531.188 166.026C528.664 163.352 526.037 160.721 523.493 157.965L523.495 157.963Z" fill="#1A1A1A" fill-opacity="1.000000" fill-rule="evenodd"/>
		<path id="Vector" d="M530.162 155.267C531.927 154.609 533.511 154.028 535.146 153.529C537.415 155.774 539.638 157.97 541.816 160.309C540.355 161.013 538.944 161.864 537.468 162.796C535.055 160.322 532.66 157.761 530.164 155.267L530.162 155.267Z" fill="#1A1A1A" fill-opacity="1.000000" fill-rule="evenodd"/>
		<path id="Vector" d="M401.653 147.543C407.918 146.903 413.949 146.417 419.732 145.784C424.009 150.39 428.371 155.108 432.722 159.76C427.142 160.697 421.57 161.819 415.313 163.086C410.751 157.804 406.236 152.551 401.653 147.543Z" fill="#1A1A1A" fill-opacity="1.000000" fill-rule="evenodd"/>
		<path id="Vector" d="M422.36 145.365C427.813 144.679 433.143 144.215 437.929 143.577C442.119 147.881 446.265 152.283 450.156 156.593C445.418 157.512 440.529 158.44 435.249 159.285C431.058 154.77 426.639 149.957 422.36 145.365Z" fill="#1A1A1A" fill-opacity="1.000000" fill-rule="evenodd"/>
		<path id="Vector" d="M440.304 143.313C445.278 142.834 449.738 142.41 454.064 141.994C457.812 145.801 461.743 149.883 465.483 153.792C461.323 154.576 457.021 155.369 452.49 156.33C448.548 151.882 444.39 147.491 440.304 143.313Z" fill="#1A1A1A" fill-opacity="1.000000" fill-rule="evenodd"/>
		<path id="Vector" d="M456.105 141.759C460.341 141.353 464.361 141.107 468.2 140.752C471.716 144.302 475.454 148.229 478.847 151.723C475.191 152.339 471.359 152.797 467.433 153.415C463.848 149.671 459.851 145.59 456.104 141.759L456.105 141.759Z" fill="#1A1A1A" fill-opacity="1.000000" fill-rule="evenodd"/>
		<path id="Vector" d="M470.079 140.615C473.785 140.203 477.248 139.7 480.724 139.563C483.989 142.815 487.334 146.199 490.635 149.698C487.52 150.235 484.204 150.852 480.627 151.516C477.187 147.84 473.538 144.159 470.079 140.615Z" fill="#1A1A1A" fill-opacity="1.000000" fill-rule="evenodd"/>
		<path id="Vector" d="M482.333 139.506C485.57 139.197 488.557 138.912 491.586 138.711C494.773 141.793 497.976 144.965 500.745 147.909C498.09 148.441 495.246 148.99 492.104 149.384C488.909 145.971 485.729 142.747 482.336 139.506L482.333 139.506Z" fill="#1A1A1A" fill-opacity="1.000000" fill-rule="evenodd"/>
		<path id="Vector" d="M492.948 138.609C495.852 138.313 498.68 138.123 501.213 137.849C504.142 140.702 507.024 143.645 509.875 146.487C507.488 147.047 504.752 147.332 502.182 147.711C499.176 144.734 496.199 141.691 492.948 138.611L492.948 138.609Z" fill="#1A1A1A" fill-opacity="1.000000" fill-rule="evenodd"/>
		<path id="Vector" d="M502.673 137.895C505.247 137.666 507.645 137.437 509.917 137.226C512.406 139.805 515.029 142.399 517.672 144.926C515.5 145.292 513.196 145.847 511.002 146.337C508.266 143.49 505.542 140.787 502.673 137.895Z" fill="#1A1A1A" fill-opacity="1.000000" fill-rule="evenodd"/>
		<path id="Vector" d="M511.311 137.076C513.511 136.921 515.478 136.664 517.492 136.566C519.892 138.846 522.302 141.218 524.724 143.625C522.864 143.969 521.114 144.385 519.133 144.712C516.547 142.179 513.863 139.589 511.311 137.073L511.311 137.076Z" fill="#1A1A1A" fill-opacity="1.000000" fill-rule="evenodd"/>
		<path id="Vector" d="M518.647 136.361C520.542 136.133 522.204 135.928 523.972 135.773C526.267 138.014 528.574 140.186 530.836 142.519C529.283 142.896 527.611 143.17 525.877 143.61C523.51 141.186 521.043 138.744 518.646 136.361L518.647 136.361Z" fill="#1A1A1A" fill-opacity="1.000000" fill-rule="evenodd"/>
		<path id="Vector" d="M524.715 135.732C526.312 135.468 527.677 135.131 529.094 134.863C531.168 136.938 533.308 139.042 535.234 140.992C533.983 141.364 532.557 141.724 531.24 142.164C529.092 140.014 526.841 137.832 524.715 135.732Z" fill="#1A1A1A" fill-opacity="1.000000" fill-rule="evenodd"/>
		<path id="Vector" d="M529.998 134.68C531.24 134.434 532.592 134.36 533.717 134.057C535.681 135.995 537.658 137.917 539.472 139.768C538.459 140.11 537.441 140.482 536.252 140.802C534.27 138.859 532.126 136.847 529.996 134.68L529.998 134.68Z" fill="#1A1A1A" fill-opacity="1.000000" fill-rule="evenodd"/>
		<path id="Vector" d="M544.124 135.847C544.507 135.521 544.829 135.013 545.103 134.652C546.408 136.035 547.714 137.252 548.804 138.476C548.823 139.077 548.613 139.609 548.349 140.123C546.918 138.705 545.604 137.35 544.127 135.847L544.124 135.847Z" fill="#1A1A1A" fill-opacity="1.000000" fill-rule="evenodd"/>
		<path id="Vector" d="M518.656 124.556C515.532 123.894 512.464 123.23 508.939 122.533C508.11 122.11 507.33 121.917 506.332 121.544C510.072 122.459 513.477 123.184 516.767 123.962C517.536 124.482 518.051 124.243 518.656 124.556Z" fill="#1A1A1A" fill-opacity="1.000000" fill-rule="evenodd"/>
		<path id="Vector" d="M497.39 121.065C492.967 120.682 488.491 120.692 483.62 120.47C482.705 120.385 481.673 120.309 480.605 119.985C485.693 120.47 490.354 120.361 494.853 120.632C495.911 121.026 496.718 120.884 497.39 121.067L497.39 121.065Z" fill="#1A1A1A" fill-opacity="1.000000" fill-rule="evenodd"/>
		<path id="Vector" d="M408.73 130.267C414.371 129.908 419.969 129.707 425.024 129.381C429.075 133.438 433.078 137.566 436.985 141.767C431.987 142.27 426.66 142.756 421.356 143.372C417.174 138.851 412.847 134.364 408.732 130.265L408.73 130.267Z" fill="#1A1A1A" fill-opacity="1.000000" fill-rule="evenodd"/>
		<path id="Vector" d="M427.482 129.239C432.531 129.158 437.323 129.056 441.823 128.862C445.474 132.613 449.49 136.54 453.027 140.284C448.771 140.702 444.146 141.027 439.371 141.417C435.504 137.328 431.429 133.197 427.482 129.241L427.482 129.239Z" fill="#1A1A1A" fill-opacity="1.000000" fill-rule="evenodd"/>
		<path id="Vector" d="M443.992 128.845C448.45 128.736 452.639 128.742 456.771 128.645C460.279 131.988 463.779 135.545 467.179 139.208C463.298 139.419 459.284 139.7 455.1 140.19C451.617 136.464 447.655 132.519 443.989 128.843L443.992 128.845Z" fill="#1A1A1A" fill-opacity="1.000000" fill-rule="evenodd"/>
		<path id="Vector" d="M458.695 128.525C462.63 128.444 466.299 128.514 469.859 128.398C473.227 131.628 476.501 134.848 479.684 138.043C476.33 138.191 472.821 138.614 469.063 139.021C465.638 135.523 462.141 131.909 458.695 128.525Z" fill="#1A1A1A" fill-opacity="1.000000" fill-rule="evenodd"/>
		<path id="Vector" d="M471.577 128.318C475.105 128.385 478.177 128.22 481.395 128.25C484.566 131.315 487.65 134.264 490.639 137.265C487.67 137.533 484.573 137.786 481.292 137.991C478.111 134.739 474.876 131.663 471.577 128.318Z" fill="#1A1A1A" fill-opacity="1.000000" fill-rule="evenodd"/>
		<path id="Vector" d="M482.867 128.141C486.017 128.106 488.871 128.095 491.722 127.993C494.645 130.816 497.471 133.606 500.31 136.453C497.764 136.945 495.001 137.069 492.108 137.27C489.007 134.188 486.096 131.21 482.864 128.141L482.867 128.141Z" fill="#1A1A1A" fill-opacity="1.000000" fill-rule="evenodd"/>
		<path id="Vector" d="M493.052 128.026C495.711 128.026 498.415 128.146 500.721 128.083C503.39 130.581 506.124 133.255 508.825 135.817C506.504 135.954 504.115 136.148 501.594 136.446C498.866 133.617 495.919 130.844 493.052 128.026Z" fill="#1A1A1A" fill-opacity="1.000000" fill-rule="evenodd"/>
		<path id="Vector" d="M394.595 115.217C400.529 115.28 406.256 115.365 411.606 115.498C415.511 119.414 419.404 123.18 423.25 127.063C417.987 127.24 412.45 127.503 406.893 127.743C402.726 123.531 398.545 119.259 394.595 115.219L394.595 115.217Z" fill="#1A1A1A" fill-opacity="1.000000" fill-rule="evenodd"/>
		<path id="Vector" d="M414.104 115.674C419.328 115.691 424.384 115.92 429.087 116.075C432.783 119.671 436.507 123.267 440.092 126.839C435.518 126.793 430.616 126.867 425.677 127.096C421.901 123.123 418.042 119.401 414.104 115.674Z" fill="#1A1A1A" fill-opacity="1.000000" fill-rule="evenodd"/>
		<path id="Vector" d="M431.464 116.114C436.095 116.206 440.579 116.389 444.813 116.578C448.189 119.826 451.626 123.176 455.066 126.698C451.009 126.726 446.754 126.806 442.366 126.874C438.79 123.25 435.066 119.586 431.466 116.114L431.464 116.114Z" fill="#1A1A1A" fill-opacity="1.000000" fill-rule="evenodd"/>
		<path id="Vector" d="M446.758 116.6C450.972 116.839 454.609 116.914 458.452 117.131C461.865 120.305 464.962 123.352 468.241 126.523C464.579 126.541 460.854 126.501 456.864 126.58C453.64 123.208 450.197 119.858 446.758 116.6Z" fill="#1A1A1A" fill-opacity="1.000000" fill-rule="evenodd"/>
		<path id="Vector" d="M460.424 117.297C463.924 117.365 467.352 117.462 470.762 117.663C473.921 120.71 476.943 123.602 479.875 126.449C476.819 126.604 473.531 126.625 469.953 126.547C466.787 123.363 463.62 120.379 460.424 117.297Z" fill="#1A1A1A" fill-opacity="1.000000" fill-rule="evenodd"/>
		<path id="Vector" d="M472.437 117.715C475.772 117.944 478.706 118.07 481.521 118.183C484.503 120.932 487.552 123.705 490.284 126.392C487.497 126.438 484.584 126.53 481.388 126.449C478.454 123.613 475.483 120.727 472.437 117.715Z" fill="#1A1A1A" fill-opacity="1.000000" fill-rule="evenodd"/>
		<path id="Vector" d="M483.276 118.514C486.242 118.76 488.867 118.898 491.543 119.057C494.271 121.64 497.123 124.304 499.759 126.97C497.241 126.776 494.592 126.741 491.827 126.628C489.086 124.049 486.36 121.472 483.276 118.517L483.276 118.514Z" fill="#1A1A1A" fill-opacity="1.000000" fill-rule="evenodd"/>
		<path id="Vector" d="M401.526 103.113C406.958 103.423 412.099 103.634 417.068 104.039C420.752 107.554 424.31 110.957 427.905 114.62C423.001 114.289 418.097 114.254 412.781 114.099C409.17 110.429 405.398 106.766 401.529 103.113L401.526 103.113Z" fill="#1A1A1A" fill-opacity="1.000000" fill-rule="evenodd"/>
		<path id="Vector" d="M419.556 104.39C424.421 104.612 428.892 105.03 433.402 105.505C436.83 108.661 440.15 111.878 443.55 115.154C439.168 114.788 434.902 114.777 430.165 114.629C426.595 111.135 423.008 107.581 419.556 104.39Z" fill="#1A1A1A" fill-opacity="1.000000" fill-rule="evenodd"/>
		<path id="Vector" d="M435.485 105.681C439.768 106.012 443.738 106.435 447.759 106.87C451.014 109.819 454.157 112.891 457.432 115.97C453.556 115.576 449.749 115.495 445.492 115.182C442.301 112.095 438.908 108.911 435.485 105.681Z" fill="#1A1A1A" fill-opacity="1.000000" fill-rule="evenodd"/>
		<path id="Vector" d="M449.716 107.012C453.504 107.35 457.072 107.554 460.613 107.892C463.672 110.75 466.64 113.574 469.674 116.471C466.266 116.295 462.903 116.145 459.13 115.975C455.906 112.934 452.918 109.979 449.716 107.012Z" fill="#1A1A1A" fill-opacity="1.000000" fill-rule="evenodd"/>
		<path id="Vector" d="M462.375 108.105C465.573 108.317 468.758 108.619 472.035 109.083C474.911 111.712 477.792 114.452 480.59 117.075C477.61 116.931 474.521 116.635 471.346 116.554C468.25 113.655 465.273 110.906 462.375 108.105Z" fill="#1A1A1A" fill-opacity="1.000000" fill-rule="evenodd"/>
		<path id="Vector" d="M481.823 111.129C484.637 111.477 487.331 111.797 489.806 112.015C492.347 114.352 495.06 116.829 497.676 119.288C495.188 119.065 492.627 119.007 490.072 118.848C487.476 116.297 484.669 113.72 481.823 111.131L481.823 111.129Z" fill="#1A1A1A" fill-opacity="1.000000" fill-rule="evenodd"/>
		<path id="Vector" d="M491.324 112.146C493.734 112.357 496.033 112.512 498.265 112.793C500.601 115.045 502.957 117.149 505.203 119.349C503.23 119.32 500.977 119.159 498.827 119.092C496.425 116.85 493.819 114.409 491.324 112.146Z" fill="#1A1A1A" fill-opacity="1.000000" fill-rule="evenodd"/>
		<path id="Vector" d="M407.402 93.1443C412.289 93.7214 417.001 94.2769 421.75 94.8433C425.114 97.9751 428.397 101.011 431.854 104.196C427.194 103.59 422.821 103.327 417.836 102.789C414.431 99.4912 410.892 96.3853 407.402 93.1443Z" fill="#1A1A1A" fill-opacity="1.000000" fill-rule="evenodd"/>
		<path id="Vector" d="M423.933 95.072C428.284 95.5469 432.654 96.1631 436.809 96.6838C439.891 99.5938 443.102 102.532 446.319 105.544C442.251 105.093 438.322 104.777 433.932 104.411C430.482 101.177 427.188 98.1692 423.933 95.0698L423.933 95.072Z" fill="#1A1A1A" fill-opacity="1.000000" fill-rule="evenodd"/>
		<path id="Vector" d="M438.797 96.9167C442.659 97.3567 446.448 97.8772 450.333 98.4609C453.293 101.24 456.121 103.784 459.212 106.631C455.675 106.293 452.063 106.008 448.264 105.755C445.107 102.726 441.844 99.7178 438.797 96.9167Z" fill="#1A1A1A" fill-opacity="1.000000" fill-rule="evenodd"/>
		<path id="Vector" d="M452.024 98.7246C455.454 99.2495 458.882 99.7026 462.137 100.143C464.965 102.739 467.923 105.344 470.733 107.901C467.505 107.57 464.326 107.221 460.976 106.842C457.876 104.035 454.942 101.377 452.024 98.7246Z" fill="#1A1A1A" fill-opacity="1.000000" fill-rule="evenodd"/>
		<path id="Vector" d="M472.627 102.377C475.578 102.852 478.311 103.179 480.876 103.51C483.527 105.938 486.202 108.33 488.716 110.776C486.191 110.512 483.608 110.251 480.742 109.885C478.076 107.404 475.421 104.969 472.627 102.379L472.627 102.377Z" fill="#1A1A1A" fill-opacity="1.000000" fill-rule="evenodd"/>
		<path id="Vector" d="M482.779 104.24C485.392 104.588 487.719 104.954 490.092 105.394C492.56 107.594 494.981 109.772 497.573 112.115C495.347 111.823 492.938 111.641 490.529 111.44C488.008 109.027 485.443 106.637 482.777 104.237L482.779 104.24Z" fill="#1A1A1A" fill-opacity="1.000000" fill-rule="evenodd"/>
		<path id="Vector" d="M396.918 81.5725C402.069 82.3806 406.935 83.1016 411.611 83.9094C414.971 86.7061 418.158 89.5813 421.605 92.7307C416.892 92.0098 412.132 91.4956 407.269 90.8662C403.802 87.6602 400.379 84.6174 396.92 81.5703L396.918 81.5725Z" fill="#1A1A1A" fill-opacity="1.000000" fill-rule="evenodd"/>
		<path id="Vector" d="M413.83 84.1426C418.435 84.9353 422.832 85.554 427.146 86.301C430.134 89.0737 433.264 91.7483 436.436 94.6538C432.251 94.0483 427.931 93.5168 423.562 92.8525C420.362 89.9426 417.164 87.1069 413.83 84.1426Z" fill="#1A1A1A" fill-opacity="1.000000" fill-rule="evenodd"/>
		<path id="Vector" d="M401.905 73.8381C406.588 74.6636 411.077 75.5696 415.465 76.3887C418.621 79.1831 421.708 81.8643 424.799 84.5542C420.658 83.844 416.163 83.158 411.446 82.3564C408.332 79.5837 405.081 76.7175 401.902 73.8381L401.905 73.8381Z" fill="#1A1A1A" fill-opacity="1.000000" fill-rule="evenodd"/>
		<path id="Vector" d="M350.964 76.772C357.701 77.7019 363.975 78.5667 369.942 79.1875C373.912 82.6091 377.548 86.1201 381.065 89.4133C375.273 88.9277 369.104 88.2307 362.564 87.5271C358.843 83.9749 354.974 80.3745 350.966 76.7742L350.964 76.772Z" fill="#1A1A1A" fill-opacity="1.000000" fill-rule="evenodd"/>
		<path id="Vector" d="M532.775 143.163C534.206 142.769 535.517 142.351 536.768 142.013C538.71 143.935 540.718 145.895 542.621 148.051C541.654 148.554 540.515 149.16 539.312 149.708C537.233 147.611 534.998 145.318 532.775 143.163Z" fill="#1A1A1A" fill-opacity="1.000000" fill-rule="evenodd"/>
		<path id="Vector" d="M527.416 144.518C529.095 144.124 530.649 143.695 532.144 143.307C534.425 145.616 536.604 147.835 538.68 149.944C537.473 150.606 536.143 151.224 534.689 151.858C532.327 149.406 529.864 146.896 527.416 144.518Z" fill="#1A1A1A" fill-opacity="1.000000" fill-rule="evenodd"/>
		<path id="Vector" d="M521.189 145.932C523.114 145.59 524.864 145.115 526.551 144.634C529.109 147.223 531.573 149.676 533.874 152.072C532.299 152.581 530.716 153.18 528.836 153.655C526.31 151.072 523.683 148.476 521.187 145.932L521.189 145.932Z" fill="#1A1A1A" fill-opacity="1.000000" fill-rule="evenodd"/>
		<path id="Vector" d="M513.237 147.519C515.488 147.034 517.674 146.52 519.844 146.176C522.396 148.708 525.072 151.549 527.655 154.23C525.702 154.761 523.797 155.539 521.826 156.31C519.021 153.291 516.06 150.423 513.237 147.517L513.237 147.519Z" fill="#1A1A1A" fill-opacity="1.000000" fill-rule="evenodd"/>
		<path id="Vector" d="M504.6 148.948C507.231 148.554 509.85 148.16 512.055 147.657C514.933 150.514 517.893 153.42 520.754 156.415C518.529 157.14 516.183 157.77 513.759 158.456C510.857 155.345 507.804 152.202 504.6 148.948Z" fill="#1A1A1A" fill-opacity="1.000000" fill-rule="evenodd"/>
		<path id="Vector" d="M494.746 150.83C497.776 150.362 500.559 149.835 503.214 149.275C506.53 152.642 509.637 155.876 512.537 158.941C510.101 159.638 507.462 160.507 504.754 161.324C501.353 157.728 498.207 154.424 494.746 150.828L494.746 150.83Z" fill="#1A1A1A" fill-opacity="1.000000" fill-rule="evenodd"/>
		<path id="Vector" d="M483.624 153.167C487.068 152.579 490.27 151.915 493.391 151.281C496.729 154.831 500.049 158.249 503.392 161.781C500.53 162.714 497.475 163.622 494.345 164.537C490.805 160.677 487.119 156.809 483.624 153.167Z" fill="#1A1A1A" fill-opacity="1.000000" fill-rule="evenodd"/>
		<path id="Vector" d="M469.552 155.208C473.507 154.419 477.293 153.829 480.814 153.315C484.429 156.918 488.095 160.86 491.687 164.708C488.355 165.504 484.759 166.36 481.172 167.544C477.221 163.206 473.461 159.176 469.55 155.208L469.552 155.208Z" fill="#1A1A1A" fill-opacity="1.000000" fill-rule="evenodd"/>
		<path id="Vector" d="M455.082 157.77C459.538 156.9 463.926 155.918 467.775 155.158C471.722 159.303 475.716 163.389 479.487 167.625C475.688 168.786 471.667 170.054 467.279 171.09C463.259 166.619 459.205 162.28 455.082 157.772L455.082 157.77Z" fill="#1A1A1A" fill-opacity="1.000000" fill-rule="evenodd"/>
		<path id="Vector" d="M437.882 160.84C443.042 159.943 448.161 159.166 452.582 157.891C456.744 162.483 460.999 167.113 464.947 171.622C460.56 172.892 455.95 174.183 451.07 175.412C446.607 170.404 442.336 165.665 437.88 160.84L437.882 160.84Z" fill="#1A1A1A" fill-opacity="1.000000" fill-rule="evenodd"/>
		<path id="Vector" d="M418.394 164.961C424.457 163.709 430.033 162.589 435.274 161.4C439.773 166.344 444.319 171.284 448.76 176.435C443.291 177.949 438.247 179.837 432.459 181.316C427.677 175.817 422.95 170.341 418.394 164.961Z" fill="#1A1A1A" fill-opacity="1.000000" fill-rule="evenodd"/>
		<path id="Vector" d="M395.87 170.117C402.962 168.727 409.246 167.414 415.583 166.035C420.312 171.465 425.031 176.993 429.756 182.397C423.839 184.353 417.571 186.267 410.996 188.227C405.795 181.887 400.851 175.926 395.87 170.117Z" fill="#1A1A1A" fill-opacity="1.000000" fill-rule="evenodd"/>
		<path id="Vector" d="M161.427 138.729C165.892 135.161 170.263 131.561 174.257 128.274C180.71 131.927 187.134 135.329 193.622 139.186C190.002 142.965 186.417 146.927 182.083 150.98C175.088 146.846 168.097 142.736 161.43 138.729L161.427 138.729Z" fill="#1A1A1A" fill-opacity="1.000000" fill-rule="evenodd"/>
		<path id="Vector" d="M380.426 131.406C382.202 129.618 383.937 127.954 385.741 126.53C388.255 128.289 390.873 130.165 393.459 131.948C391.854 133.641 390.338 135.459 388.708 137.505C385.926 135.425 383.149 133.36 380.424 131.406L380.426 131.406Z" fill="#1A1A1A" fill-opacity="1.000000" fill-rule="evenodd"/>
		<path id="Vector" d="M450.718 65.3438C451.409 64.2896 452.044 63.1917 452.628 62.0918C454.89 63.9626 457.305 65.9883 459.676 67.9617C459.306 69.2271 458.783 70.3835 458.192 71.623C455.712 69.5386 453.19 67.4194 450.721 65.3438L450.718 65.3438Z" fill="#1A1A1A" fill-opacity="1.000000" fill-rule="evenodd"/>
		<path id="Vector" d="M83.5273 248.222C89.1074 243.855 94.3711 239.671 99.4834 235.988C106.14 238.035 112.671 240.459 119.524 242.772C114.555 246.797 109.663 251.147 104.637 255.834C97.4883 253.146 90.1758 250.724 83.5254 248.219L83.5273 248.222Z" fill="#1A1A1A" fill-opacity="1.000000" fill-rule="evenodd"/>
		<path id="Vector" d="M434.789 79.5098C435.338 78.9065 435.771 78.3186 436.202 77.7522C437.672 78.8193 439.15 79.8672 440.579 80.9126C440.249 81.5593 439.907 82.3196 439.524 82.9556C437.943 81.812 436.421 80.6772 434.789 79.5078L434.789 79.5098Z" fill="#1A1A1A" fill-opacity="1.000000" fill-rule="evenodd"/>
		<path id="Vector" d="M384.136 51.9072C385.462 51.3431 386.717 50.8444 387.96 50.3848C389.834 51.6589 391.707 52.9767 393.623 54.3662C392.577 54.9957 391.429 55.5554 390.123 56.2786C388.172 54.7561 386.153 53.3339 384.136 51.9094L384.136 51.9072Z" fill="#1A1A1A" fill-opacity="1.000000" fill-rule="evenodd"/>
		<path id="Vector" d="M102.204 103.595C107.459 101.434 112.344 99.5479 116.985 97.7705C122.987 100.258 128.67 102.641 134.108 105.167C129.915 107.26 125.499 109.404 120.557 112.039C114.214 109.083 108.049 106.152 102.204 103.595Z" fill="#1A1A1A" fill-opacity="1.000000" fill-rule="evenodd"/>
		<path id="Vector" d="M405.624 48.54C406.424 48.1632 407.023 47.6688 407.658 47.2964C409.185 48.2939 410.64 49.42 412.109 50.5068C411.571 50.9839 411.075 51.548 410.425 51.9835C408.962 50.8662 407.295 49.6836 405.624 48.54Z" fill="#1A1A1A" fill-opacity="1.000000" fill-rule="evenodd"/>
		<path id="Vector" d="M439.026 40.3115C439.451 40.0022 439.914 39.7648 440.332 39.4795C441.433 40.3311 442.638 41.2111 443.694 42.0234C443.329 42.3545 443.012 42.6899 442.686 43.0732C441.48 42.165 440.229 41.2394 439.026 40.3115Z" fill="#1A1A1A" fill-opacity="1.000000" fill-rule="evenodd"/>
		<path id="Vector" d="M519.675 124.179C519.854 123.722 520.091 123.265 520.213 122.825C521.093 123.426 521.913 124.112 522.792 124.739C522.725 125.271 522.602 125.774 522.479 126.277C521.488 125.573 520.606 124.876 519.675 124.179Z" fill="#1A1A1A" fill-opacity="1.000000" fill-rule="evenodd"/>
		<path id="Vector" d="M79.4912 174.497C83.2324 172.709 86.2598 171.021 89.4531 169.405C94.1426 170.731 98.6338 171.931 103.109 173.229C100.364 174.887 97.2559 176.819 93.9658 178.648C89.0635 177.315 84.2627 175.865 79.4912 174.497Z" fill="#1A1A1A" fill-opacity="1.000000" fill-rule="evenodd"/>
		<path id="Vector" d="M354.759 43.2561C356.071 42.8684 357.412 42.6027 358.547 42.2063C360.374 43.3977 362.303 44.6348 364.031 45.7827C362.931 46.2662 361.9 46.6779 360.685 47.1309C358.866 45.8828 356.74 44.5063 354.759 43.2561Z" fill="#1A1A1A" fill-opacity="1.000000" fill-rule="evenodd"/>
		<path id="Vector" d="M403.123 13.8044C403.956 13.6498 404.79 13.517 405.608 13.4756C406.981 14.3468 408.29 15.3422 409.604 16.2961C408.826 16.4312 408.043 16.5793 407.258 16.7513C405.853 15.7234 404.488 14.7454 403.123 13.8044Z" fill="#1A1A1A" fill-opacity="1.000000" fill-rule="evenodd"/>
		<path id="Vector" d="M423.874 49.8839C424.631 49.6443 425.376 49.4745 426.074 49.261C427.249 50.1061 428.579 51.0339 429.812 51.8702C429.11 52.1185 428.463 52.3495 427.756 52.6022C426.427 51.6786 425.199 50.8096 423.871 49.8839L423.874 49.8839Z" fill="#1A1A1A" fill-opacity="1.000000" fill-rule="evenodd"/>
		<path id="Vector" d="M551.533 147.498C551.747 147.149 551.907 146.875 552.123 146.526C552.816 147.001 553.508 147.48 554.145 147.927C553.989 148.286 553.889 148.624 553.672 148.916C552.977 148.465 552.224 147.979 551.533 147.498Z" fill="#1A1A1A" fill-opacity="1.000000" fill-rule="evenodd"/>
		<path id="Vector" d="M441.708 69.3164C442.465 69.0681 443.174 68.7827 443.869 68.5999C444.976 69.3513 446.192 70.1572 447.36 70.9065C446.658 71.1548 445.956 71.416 445.302 71.7124C444.141 70.9216 442.922 70.1267 441.708 69.3164Z" fill="#1A1A1A" fill-opacity="1.000000" fill-rule="evenodd"/>
		<path id="Vector" d="M323.957 79.7102C325.6 79.2812 327.175 78.8433 328.688 78.4382C330.682 79.512 332.621 80.5334 334.724 81.6575C333.168 82.0125 331.642 82.498 330.117 82.949C328.135 81.8425 325.965 80.7449 323.957 79.7102Z" fill="#1A1A1A" fill-opacity="1.000000" fill-rule="evenodd"/>
		<path id="Vector" d="M556.837 139.968C557.041 139.613 557.306 139.306 557.511 139.031C558.191 139.465 558.819 139.918 559.449 140.426C559.246 140.728 559.038 141.044 558.835 141.397C558.147 140.911 557.463 140.426 556.837 139.968Z" fill="#1A1A1A" fill-opacity="1.000000" fill-rule="evenodd"/>
		<path id="Vector" d="M460.034 86.325C460.736 86.0789 461.445 85.7544 462.091 85.4951C463.178 86.2205 464.157 86.8848 465.194 87.5925C464.604 87.8669 464.009 88.1763 463.356 88.5073C462.268 87.7537 461.174 87.0959 460.034 86.3228L460.034 86.325Z" fill="#1A1A1A" fill-opacity="1.000000" fill-rule="evenodd"/>
		<path id="Vector" d="M451.123 57.4941C451.737 57.3351 452.339 57.2742 452.949 57.1609C453.844 57.7708 454.782 58.4525 455.684 59.0253C455.181 59.1342 454.568 59.291 454.056 59.4652C453.063 58.7792 452.12 58.1171 451.123 57.4963L451.123 57.4941Z" fill="#1A1A1A" fill-opacity="1.000000" fill-rule="evenodd"/>
		<path id="Vector" d="M0 214.627C4.99219 213.125 10.2705 211.341 15.6055 209.792C20.5469 210.851 25.8848 211.604 30.9023 212.53C26.1055 213.998 20.9102 215.719 16.1104 217.424C10.5039 216.481 5.31836 215.612 0 214.63L0 214.627Z" fill="#1A1A1A" fill-opacity="1.000000" fill-rule="evenodd"/>
		<path id="Vector" d="M383.622 22.7847C384.723 22.8282 385.714 22.8391 386.704 22.8478C387.866 23.5862 389.078 24.3572 390.329 25.1827C389.343 25.137 388.439 25.2197 387.444 25.2111C386.192 24.3877 384.939 23.5557 383.625 22.7847L383.622 22.7847Z" fill="#1A1A1A" fill-opacity="1.000000" fill-rule="evenodd"/>
		<path id="Vector" d="M543.143 144.32C543.479 144.07 543.816 143.81 544.037 143.571C544.665 143.972 545.352 144.429 545.925 144.795C545.704 145.063 545.426 145.292 545.148 145.579C544.461 145.115 543.829 144.727 543.143 144.322L543.143 144.32Z" fill="#1A1A1A" fill-opacity="1.000000" fill-rule="evenodd"/>
		<path id="Vector" d="M246.532 117.624C249.018 117.018 251.68 116.656 254.215 116.108C256.713 116.977 258.985 117.737 261.219 118.63C258.918 119.052 256.426 119.647 253.825 120.242C251.395 119.344 248.899 118.482 246.534 117.624L246.532 117.624Z" fill="#1A1A1A" fill-opacity="1.000000" fill-rule="evenodd"/>
		<path id="Vector" d="M255.016 162.748C257.258 161.348 259.476 159.954 261.707 158.741C264.831 159.941 268.016 161.352 271.223 162.713C269.146 164.096 267.084 165.445 264.999 167.017C261.523 165.44 258.231 164.118 255.016 162.746L255.016 162.748Z" fill="#1A1A1A" fill-opacity="1.000000" fill-rule="evenodd"/>
		<path id="Vector" d="M550.226 155.74C550.439 155.123 550.595 154.494 550.753 153.956C551.63 154.585 552.568 155.282 553.509 156.007C553.415 156.637 553.318 157.351 553.17 157.996C552.225 157.253 551.225 156.497 550.226 155.737L550.226 155.74Z" fill="#1A1A1A" fill-opacity="1.000000" fill-rule="evenodd"/>
		<path id="Vector" d="M309.305 107.025C311.326 105.871 313.19 104.841 314.92 103.836C317.58 105.311 320.352 106.877 323.121 108.471C321.38 109.541 319.824 110.826 317.885 111.93C314.94 110.277 312.129 108.633 309.305 107.025Z" fill="#1A1A1A" fill-opacity="1.000000" fill-rule="evenodd"/>
	</g>
</svg>
