<svg  fill="none" xmlns="http://www.w3.org/2000/svg"><g fill="#fff"><path d="M98.82 20.36v-8.006c0-.925-.298-1.686-.896-2.284-.578-.597-1.33-.896-2.254-.896-.617 0-1.166.135-1.648.405s-.857.645-1.127 1.127-.405 1.031-.405 1.648l-1.243-.694c0-1.06.231-1.995.694-2.804a4.981 4.981 0 0 1 1.908-1.937c.828-.481 1.753-.722 2.775-.722 1.04 0 1.965.27 2.775.81a5.57 5.57 0 0 1 1.907 2.051c.463.829.694 1.696.694 2.602v8.7h-3.18Zm-9.51 0V6.486h3.18V20.36h-3.18ZM82.565 20.36V6.486h3.18V20.36h-3.18Zm1.59-16.418c-.54 0-.993-.183-1.359-.549-.347-.366-.52-.819-.52-1.359s.173-.992.52-1.358c.366-.366.82-.55 1.359-.55.559 0 1.011.184 1.358.55.347.366.52.819.52 1.358 0 .54-.173.993-.52 1.359-.347.366-.8.55-1.358.55ZM73.541 20.65c-1.387 0-2.64-.309-3.757-.926a7.243 7.243 0 0 1-2.63-2.601c-.637-1.098-.955-2.332-.955-3.7 0-1.368.318-2.592.954-3.67a7.087 7.087 0 0 1 2.573-2.602c1.098-.636 2.312-.954 3.642-.954 1.29 0 2.428.298 3.41.896A6.245 6.245 0 0 1 79.12 9.55c.578 1.04.867 2.225.867 3.555 0 .231-.02.472-.058.723-.02.231-.058.491-.115.78h-11.39v-2.601h9.742l-1.185 1.04c-.039-.848-.203-1.56-.491-2.139a3.076 3.076 0 0 0-1.243-1.33c-.52-.308-1.166-.462-1.937-.462-.81 0-1.513.174-2.11.52a3.536 3.536 0 0 0-1.388 1.475c-.327.616-.491 1.358-.491 2.225s.173 1.629.52 2.284a3.763 3.763 0 0 0 1.474 1.532c.636.347 1.369.52 2.197.52.713 0 1.368-.125 1.966-.376a4.105 4.105 0 0 0 1.56-1.098l2.024 2.052a6.49 6.49 0 0 1-2.457 1.792 7.831 7.831 0 0 1-3.064.607ZM58.677 20.36V.705h3.18V20.36h-3.18ZM55.352 9.376v-2.89h9.828v2.89h-9.828ZM45.61 20.65c-1.253 0-2.39-.319-3.412-.954a7.007 7.007 0 0 1-2.399-2.573c-.578-1.098-.867-2.322-.867-3.671 0-1.368.29-2.592.867-3.671.598-1.098 1.397-1.966 2.4-2.601 1.02-.656 2.158-.983 3.41-.983 1.06 0 1.995.231 2.804.694a5.045 5.045 0 0 1 1.966 1.85c.481.79.722 1.686.722 2.688v3.989c0 1.002-.24 1.898-.722 2.688a5.044 5.044 0 0 1-1.937 1.879c-.829.443-1.773.664-2.833.664Zm.52-3.007c1.175 0 2.12-.395 2.832-1.185.732-.79 1.099-1.802 1.099-3.035 0-.829-.164-1.56-.492-2.197a3.536 3.536 0 0 0-1.387-1.474c-.578-.366-1.262-.55-2.053-.55-.77 0-1.454.184-2.052.55a3.795 3.795 0 0 0-1.387 1.474c-.328.636-.492 1.368-.492 2.197s.164 1.561.492 2.197c.347.636.81 1.137 1.387 1.503.598.347 1.282.52 2.053.52Zm3.728 2.717v-3.728l.55-3.382-.55-3.353V6.486h3.18V20.36h-3.18ZM31.38 20.36V.705h3.18V20.36h-3.18ZM28.056 9.376v-2.89h9.827v2.89h-9.827ZM21.388 20.65a8.49 8.49 0 0 1-2.226-.29 8.228 8.228 0 0 1-1.965-.867 6.721 6.721 0 0 1-1.561-1.387l2.023-2.024a4.933 4.933 0 0 0 1.648 1.272c.636.27 1.349.405 2.139.405.713 0 1.252-.106 1.618-.318.366-.212.55-.52.55-.925 0-.424-.174-.752-.52-.983-.348-.231-.8-.424-1.36-.578a49.01 49.01 0 0 0-1.734-.52 9.588 9.588 0 0 1-1.734-.694 3.908 3.908 0 0 1-1.33-1.243c-.346-.52-.52-1.195-.52-2.023 0-.887.203-1.648.607-2.284.424-.636 1.012-1.127 1.763-1.474.771-.347 1.687-.52 2.746-.52 1.118 0 2.1.202 2.949.607.867.385 1.59.973 2.168 1.763l-2.024 2.023a4.031 4.031 0 0 0-1.387-1.127c-.52-.25-1.118-.376-1.792-.376-.636 0-1.128.097-1.475.29-.346.192-.52.471-.52.838 0 .385.174.684.52.896.347.212.79.395 1.33.549.559.154 1.137.328 1.735.52a6.952 6.952 0 0 1 1.734.752 3.739 3.739 0 0 1 1.358 1.271c.347.52.52 1.205.52 2.053 0 1.349-.471 2.418-1.416 3.208-.944.79-2.225 1.185-3.844 1.185ZM.234 20.36V.127h3.324V20.36H.234Zm2.283 0v-3.035h11.331v3.035H2.518Zm0-8.873v-2.92h10.349v2.92H2.517Zm0-8.325V.127h11.187v3.035H2.517Z"/></g></svg>