<svg width="7" height="8" fill="none" xmlns="http://www.w3.org/2000/svg"><g clip-path="url(#a)"><path d="M3.36 7.364a3.36 3.36 0 1 0 0-6.72 3.36 3.36 0 0 0 0 6.72Z" fill="#333"/><path d="M0 10.72A3.36 3.36 0 1 0 0 4a3.36 3.36 0 0 0 0 6.72Z" fill="#141414"/><path d="M6.72 10.72a3.36 3.36 0 1 0 0-6.72 3.36 3.36 0 0 0 0 6.72ZM0 4a3.36 3.36 0 1 0 0-6.72A3.36 3.36 0 0 0 0 4Z" fill="#141414"/><path d="M6.72 4a3.36 3.36 0 1 0 0-6.72 3.36 3.36 0 0 0 0 6.72Z" fill="#141414"/></g><defs><clipPath id="a"><path fill="#fff" transform="translate(0 .64)" d="M0 0h6.72v6.72H0z"/></clipPath></defs></svg>