<svg aria-hidden="true" style="position: absolute; width: 0; height: 0; overflow: hidden;" version="1.1" xmlns="http://www.w3.org/2000/svg" xmlns:xlink="http://www.w3.org/1999/xlink">
<defs>
<symbol id="icon-estatein" viewBox="0 0 155 32">
<path fill="#fff" style="fill: var(--color1, #fff)" d="M150.583 31.025v-12.2c0-1.41-0.454-2.569-1.365-3.48-0.881-0.91-2.027-1.365-3.435-1.365-0.94 0-1.777 0.206-2.511 0.617s-1.306 0.983-1.717 1.717-0.617 1.571-0.617 2.511l-1.894-1.058c0-1.615 0.352-3.040 1.058-4.273 0.69-1.242 1.678-2.245 2.871-2.932l0.037-0.020c1.262-0.733 2.671-1.1 4.229-1.1 1.585 0 2.994 0.411 4.229 1.234 1.22 0.786 2.202 1.839 2.884 3.081l0.022 0.044c0.706 1.263 1.058 2.584 1.058 3.965v13.257h-4.846zM136.091 31.025v-21.141h4.846v21.141h-4.846zM125.813 31.025v-21.141h4.846v21.141h-4.846zM128.236 6.007c-0.823 0-1.513-0.279-2.071-0.837-0.529-0.558-0.792-1.248-0.792-2.071s0.264-1.512 0.792-2.069c0.558-0.558 1.25-0.838 2.071-0.838 0.852 0 1.541 0.28 2.069 0.838s0.792 1.248 0.792 2.069c0 0.823-0.264 1.513-0.792 2.071s-1.219 0.838-2.069 0.838zM112.062 31.467c-2.114 0-4.023-0.471-5.725-1.411-1.667-0.97-3.021-2.31-3.98-3.913l-0.028-0.050c-0.971-1.673-1.455-3.554-1.455-5.638s0.485-3.95 1.454-5.592c0.955-1.653 2.281-2.993 3.871-3.938l0.050-0.027c1.673-0.969 3.523-1.454 5.55-1.454 1.966 0 3.7 0.454 5.196 1.365 1.515 0.907 2.729 2.177 3.544 3.693l0.025 0.051c0.881 1.585 1.321 3.39 1.321 5.417 0 0.352-0.030 0.719-0.088 1.102-0.030 0.352-0.088 0.748-0.175 1.189h-17.356v-3.963h14.845l-1.806 1.585c-0.059-1.292-0.309-2.377-0.748-3.259-0.423-0.859-1.072-1.552-1.872-2.015l-0.022-0.012c-0.792-0.469-1.777-0.704-2.952-0.704-1.234 0-2.306 0.265-3.215 0.792-0.91 0.534-1.633 1.3-2.101 2.217l-0.014 0.031c-0.498 0.939-0.748 2.069-0.748 3.39s0.264 2.482 0.792 3.48c0.52 0.985 1.286 1.78 2.219 2.32l0.028 0.015c0.969 0.529 2.086 0.792 3.348 0.792 1.086 0 2.085-0.19 2.996-0.573 0.942-0.381 1.737-0.951 2.371-1.667l0.006-0.007 3.084 3.127c-1.001 1.174-2.255 2.102-3.679 2.706l-0.065 0.024c-1.36 0.585-2.944 0.925-4.607 0.925-0.022 0-0.044-0-0.066-0h0.003zM89.413 31.025v-29.95h4.846v29.95h-4.846zM84.346 14.287v-4.404h14.976v4.404h-14.976zM69.501 31.467c-1.909 0-3.642-0.486-5.199-1.454-1.533-0.986-2.769-2.307-3.628-3.866l-0.028-0.055c-0.881-1.673-1.321-3.538-1.321-5.594 0-2.085 0.442-3.95 1.321-5.594 0.911-1.673 2.129-2.996 3.657-3.963 1.554-1 3.288-1.498 5.196-1.498 1.615 0 3.040 0.352 4.273 1.058 1.248 0.665 2.263 1.623 2.977 2.786l0.019 0.033c0.733 1.204 1.1 2.569 1.1 4.096v6.078c0 1.527-0.366 2.892-1.1 4.096-0.716 1.209-1.717 2.181-2.912 2.843l-0.039 0.020c-1.263 0.675-2.702 1.012-4.317 1.012zM70.293 26.885c1.79 0 3.23-0.602 4.315-1.806 1.115-1.204 1.675-2.746 1.675-4.625 0-1.263-0.25-2.377-0.75-3.348-0.482-0.947-1.204-1.712-2.088-2.232l-0.025-0.014c-0.881-0.558-1.923-0.838-3.128-0.838-1.173 0-2.216 0.28-3.127 0.838-0.896 0.55-1.614 1.311-2.098 2.215l-0.015 0.031c-0.5 0.969-0.75 2.085-0.75 3.348s0.25 2.379 0.75 3.348c0.529 0.969 1.234 1.733 2.114 2.29 0.911 0.529 1.954 0.792 3.128 0.792zM75.974 31.025v-5.681l0.838-5.154-0.838-5.109v-5.198h4.846v21.141h-4.846zM47.817 31.025v-29.95h4.846v29.95h-4.846zM42.752 14.287v-4.404h14.974v4.404h-14.974zM32.591 31.467c-0.012 0-0.026 0-0.039 0-1.192 0-2.347-0.161-3.444-0.463l0.091 0.021c-1.14-0.338-2.133-0.788-3.048-1.352l0.054 0.031c-0.917-0.594-1.701-1.293-2.365-2.096l-0.014-0.017 3.083-3.084c0.683 0.806 1.519 1.459 2.467 1.919l0.045 0.020c0.969 0.411 2.056 0.617 3.259 0.617 1.086 0 1.908-0.162 2.466-0.485s0.838-0.792 0.838-1.41c0-0.646-0.265-1.146-0.792-1.498-0.53-0.352-1.219-0.646-2.072-0.881-0.346-0.137-1.227-0.408-2.115-0.663l-0.527-0.13c-1.017-0.299-1.893-0.659-2.722-1.096l0.080 0.038c-0.824-0.474-1.504-1.111-2.013-1.872l-0.014-0.022c-0.527-0.792-0.792-1.821-0.792-3.083 0-1.352 0.309-2.511 0.925-3.48 0.646-0.969 1.542-1.717 2.686-2.246 1.175-0.529 2.571-0.792 4.184-0.792 1.704 0 3.2 0.308 4.494 0.925 1.321 0.587 2.423 1.483 3.304 2.686l-3.084 3.083c-0.565-0.716-1.271-1.295-2.078-1.701l-0.035-0.016c-0.792-0.381-1.704-0.573-2.731-0.573-0.969 0-1.719 0.148-2.248 0.442-0.527 0.293-0.792 0.718-0.792 1.277 0 0.587 0.265 1.042 0.792 1.365 0.529 0.323 1.204 0.602 2.027 0.837 0.852 0.235 1.733 0.5 2.644 0.792 1.005 0.285 1.882 0.676 2.688 1.172l-0.046-0.026c0.851 0.472 1.548 1.126 2.056 1.914l0.014 0.022c0.529 0.792 0.792 1.836 0.792 3.128 0 2.056-0.718 3.685-2.158 4.888-1.438 1.204-3.39 1.806-5.858 1.806zM0.357 31.025v-30.831h5.065v30.831h-5.065zM3.835 31.025v-4.625h17.266v4.625h-17.265zM3.835 17.504v-4.45h15.77v4.45h-15.77zM3.835 4.818v-4.625h17.047v4.625h-17.047z"></path>
</symbol>
<symbol id="icon-logo" viewBox="0 0 31 32">
<path fill="#703bf7" style="fill: var(--color2, #703bf7)" d="M15.673 31.673c-8.655 0-15.673-7.018-15.673-15.673h15.673v15.673zM0 0.327c8.655 0 15.673 7.018 15.673 15.673h-15.673v-15.673zM15.673 31.673c8.655 0 15.673-7.018 15.673-15.673h-15.673v15.673zM31.347 16c0-8.655-7.018-15.673-15.673-15.673v15.673h15.673z"></path>
</symbol>
<symbol id="icon-home" viewBox="0 0 33 32">
<path d="M5.077 11.394c0.869 0.869 2.069 1.406 3.394 1.406 1.662 0 3.127-0.845 3.989-2.129l0.011-0.017c0.871 1.301 2.335 2.146 3.997 2.146 0.001 0 0.002 0 0.003 0h-0c0.001 0 0.002 0 0.003 0 1.661 0 3.126-0.845 3.986-2.129l0.011-0.017c0.873 1.299 2.337 2.143 3.997 2.143 2.651 0 4.8-2.149 4.8-4.8 0-1.324-0.536-2.523-1.403-3.391l-0.469-0.469c-0.579-0.579-1.379-0.937-2.263-0.937h-17.327c-0.884 0-1.684 0.358-2.263 0.937l-0.468 0.468c-0.869 0.869-1.406 2.069-1.406 3.394s0.537 2.526 1.406 3.394v0zM5.271 14.452c0.933 0.471 2.033 0.748 3.198 0.748 1.492 0 2.878-0.453 4.028-1.229l-0.026 0.016c1.12 0.76 2.502 1.213 3.99 1.213 0.003 0 0.007 0 0.011 0h-0.001c0.003 0 0.006 0 0.010 0 1.488 0 2.87-0.453 4.015-1.229l-0.025 0.016c1.125 0.76 2.511 1.213 4.002 1.213 1.165 0 2.265-0.276 3.239-0.767l-0.041 0.019v11.948h0.4c0.663 0 1.2 0.537 1.2 1.2s-0.537 1.2-1.2 1.2h-7.2c-0.663 0-1.2-0.536-1.2-1.2v-5.6c0-0.663-0.536-1.2-1.2-1.2h-4c-0.663 0-1.2 0.536-1.2 1.2v5.6c0 0.663-0.536 1.2-1.2 1.2h-7.2c-0.663 0-1.2-0.537-1.2-1.2s0.537-1.2 1.2-1.2h0.4v-11.948z"></path>
</symbol>
<symbol id="icon-management" viewBox="0 0 33 32">
<path d="M2.071 4.4c0-0.663 0.537-1.2 1.2-1.2h16.8c0.663 0 1.2 0.537 1.2 1.2s-0.537 1.2-1.2 1.2h-0.4v22c0 0.663-0.536 1.2-1.2 1.2h-2.4c-0.663 0-1.2-0.536-1.2-1.2v-4c0-0.663-0.536-1.2-1.2-1.2h-4c-0.663 0-1.2 0.536-1.2 1.2v4c0 0.663-0.536 1.2-1.2 1.2h-4c-0.663 0-1.2-0.537-1.2-1.2s0.537-1.2 1.2-1.2h0.4v-20.8h-0.4c-0.663 0-1.2-0.536-1.2-1.2zM6.871 8.8c0-0.442 0.358-0.8 0.8-0.8h1.6c0.442 0 0.8 0.358 0.8 0.8v1.6c0 0.442-0.358 0.8-0.8 0.8h-1.6c-0.442 0-0.8-0.358-0.8-0.8v0-1.6zM7.671 14.4c-0.442 0-0.8 0.358-0.8 0.8v0 1.6c0 0.442 0.358 0.8 0.8 0.8h1.6c0.442 0 0.8-0.358 0.8-0.8v-1.6c0-0.442-0.358-0.8-0.8-0.8h-1.6zM13.271 8.8c0-0.442 0.358-0.8 0.8-0.8h1.6c0.442 0 0.8 0.358 0.8 0.8v1.6c0 0.442-0.358 0.8-0.8 0.8h-1.6c-0.442 0-0.8-0.358-0.8-0.8v0-1.6zM14.071 14.4c-0.442 0-0.8 0.358-0.8 0.8v0 1.6c0 0.442 0.358 0.8 0.8 0.8h1.6c0.442 0 0.8-0.358 0.8-0.8v-1.6c0-0.442-0.358-0.8-0.8-0.8v0h-1.6zM23.271 9.6c-0.663 0-1.2 0.536-1.2 1.2v16.4c0 0.884 0.716 1.6 1.6 1.6h6c0.663 0 1.2-0.537 1.2-1.2s-0.537-1.2-1.2-1.2h-0.4v-14.4h0.4c0.663 0 1.2-0.537 1.2-1.2s-0.537-1.2-1.2-1.2h-6.4zM24.071 15.2c0-0.442 0.358-0.8 0.8-0.8h1.6c0.442 0 0.8 0.358 0.8 0.8v1.6c0 0.442-0.358 0.8-0.8 0.8h-1.6c-0.442 0-0.8-0.358-0.8-0.8v0-1.6zM24.871 20.8c-0.442 0-0.8 0.358-0.8 0.8v0 1.6c0 0.442 0.358 0.8 0.8 0.8h1.6c0.442 0 0.8-0.358 0.8-0.8v-1.6c0-0.442-0.358-0.8-0.8-0.8v0h-1.6z"></path>
</symbol>
<symbol id="icon-sun" viewBox="0 0 33 32">
<path d="M16.471 3c0.552 0 1 0.447 1 1v3c-0.017 0.539-0.458 0.97-1 0.97s-0.983-0.431-1-0.968l-0-0.002v-3c0-0.552 0.447-1 1-1zM10.471 16c0-3.314 2.686-6 6-6s6 2.686 6 6v0c0 3.314-2.686 6-6 6s-6-2.686-6-6v0zM25.663 8.222c0.173-0.179 0.279-0.424 0.279-0.693 0-0.553-0.448-1-1-1-0.269 0-0.513 0.106-0.693 0.279l0-0-2.12 2.121c-0.181 0.181-0.293 0.431-0.293 0.707 0 0.552 0.448 1 1 1 0.276 0 0.526-0.112 0.707-0.293l2.121-2.12zM29.471 16c0 0.552-0.448 1-1 1h-3c-0.539-0.017-0.97-0.458-0.97-1s0.431-0.983 0.968-1l0.002-0h3c0.552 0 1 0.447 1 1zM24.248 25.192c0.18 0.173 0.424 0.279 0.693 0.279 0.553 0 1-0.448 1-1 0-0.269-0.106-0.513-0.279-0.693l0 0-2.121-2.121c-0.181-0.181-0.431-0.293-0.707-0.293-0.552 0-1 0.448-1 1 0 0.276 0.112 0.526 0.293 0.707l2.121 2.121zM16.471 24c0.552 0 1 0.448 1 1v3c-0.017 0.539-0.458 0.97-1 0.97s-0.983-0.431-1-0.968l-0-0.002v-3c0-0.552 0.447-1 1-1zM10.814 23.071c0.173-0.18 0.279-0.424 0.279-0.693 0-0.553-0.448-1-1-1-0.269 0-0.513 0.106-0.693 0.279l0-0-2.121 2.121c-0.173 0.18-0.279 0.424-0.279 0.693 0 0.553 0.448 1 1 1 0.269 0 0.513-0.106 0.693-0.279l-0 0 2.121-2.121zM8.471 16c0 0.552-0.448 1-1 1h-3c-0.539-0.017-0.97-0.458-0.97-1s0.431-0.983 0.968-1l0.002-0h3c0.552 0 1 0.447 1 1zM9.4 10.344c0.181 0.181 0.431 0.293 0.707 0.293 0.552 0 1-0.448 1-1 0-0.276-0.112-0.526-0.293-0.707l-2.121-2.121c-0.179-0.173-0.424-0.279-0.693-0.279-0.553 0-1 0.448-1 1 0 0.269 0.106 0.513 0.279 0.693l-0-0 2.121 2.12z"></path>
</symbol>
<symbol id="icon-value" viewBox="0 0 33 32">
<path d="M16.471 10c-0.016-0-0.034-0-0.053-0-1.657 0-3 1.343-3 3s1.343 3 3 3c0.019 0 0.037-0 0.056-0.001l-0.003 0c1.634-0.030 2.947-1.362 2.947-3s-1.313-2.97-2.945-3l-0.003-0z"></path>
<path d="M2.47 6.5v13.001c0 1.381 1.119 2.5 2.5 2.5h23.002c1.381 0 2.5-1.119 2.5-2.5v-13.001c0-1.381-1.119-2.5-2.5-2.5h-23.001c-1.381 0-2.5 1.119-2.5 2.5zM11.471 13c-0-0.020-0-0.044-0-0.069 0-2.762 2.239-5 5-5s5 2.239 5 5c0 0.024-0 0.048-0 0.072l0-0.004c-0.039 2.732-2.262 4.932-5 4.932s-4.961-2.2-5-4.928l-0-0.004zM25.471 12h0.009c0.552 0 1 0.448 1 1v0.009c0 0.552-0.448 1-1 1h-0.009c-0.552 0-1-0.448-1-1v-0.009c0-0.552 0.448-1 1-1zM6.471 13c0-0.552 0.448-1 1-1h0.009c0.552 0 1 0.448 1 1v0.009c0 0.552-0.448 1-1 1h-0.009c-0.553 0-1-0.448-1-1v-0.009z"></path>
<path d="M3.471 24c-0.539 0.017-0.97 0.458-0.97 1s0.431 0.983 0.968 1l0.002 0c7.2 0 14.173 0.963 20.8 2.767 1.587 0.431 3.2-0.744 3.2-2.427v-1.34c0-0.552-0.448-1-1-1h-23z"></path>
</symbol>
<symbol id="icon-arrow-right-top" viewBox="0 0 32 32">
<path fill="none" stroke="#4d4d4d" style="stroke: var(--color1, #4d4d4d)" stroke-linejoin="round" stroke-linecap="round" stroke-miterlimit="4" stroke-width="1.8824" d="M6 26l20-20M26 6h-15M26 6v15"></path>
</symbol>
<symbol id="icon-arrow-left" viewBox="0 0 32 32">
<path d="M27.2 16c0 0.662-0.538 1.2-1.2 1.2h-17.021l6.653 6.336c0.242 0.22 0.394 0.537 0.394 0.889 0 0.663-0.537 1.2-1.2 1.2-0.336 0-0.64-0.138-0.858-0.361l-0-0-8.8-8.399c-0.227-0.219-0.368-0.525-0.368-0.865s0.141-0.646 0.368-0.865l0-0 8.8-8.4c0.215-0.207 0.509-0.335 0.832-0.335 0.663 0 1.2 0.537 1.2 1.2 0 0.34-0.141 0.646-0.368 0.865l-0 0-6.653 6.335h17.021c0.662 0 1.2 0.538 1.2 1.2z"></path>
</symbol>
<symbol id="icon-arrow-right" viewBox="0 0 32 32">
<path d="M4.8 16c0-0.662 0.538-1.2 1.2-1.2h17.021l-6.653-6.336c-0.242-0.22-0.394-0.537-0.394-0.889 0-0.663 0.537-1.2 1.2-1.2 0.336 0 0.64 0.138 0.858 0.361l0 0 8.8 8.399c0.227 0.219 0.368 0.525 0.368 0.865s-0.141 0.646-0.368 0.865l-0 0-8.8 8.4c-0.215 0.207-0.509 0.335-0.832 0.335-0.663 0-1.2-0.537-1.2-1.2 0-0.34 0.141-0.646 0.368-0.865l0-0 6.653-6.335h-17.021c-0.663 0-1.2-0.537-1.2-1.2v0z"></path>
</symbol>
<symbol id="icon-badroom" viewBox="0 0 39 32">
<path d="M19.577 28.373h-15.989c-0.539 0-0.788 0.245-0.788 0.779 0 0.137 0.007 0.276-0.002 0.412-0.011 0.183-0.032 0.351-0.063 0.516l0.004-0.025c-0.116 0.588-0.679 1.060-1.353 1.052-0.675-0.008-1.233-0.502-1.341-1.148l-0.001-0.008c-0.023-0.138-0.036-0.297-0.036-0.459 0-0 0-0.001 0-0.001v0c-0.002-3.131-0.023-6.263 0.007-9.394 0.018-1.826 0.692-3.413 1.984-4.734 0.758-0.772 1.693-1.367 2.738-1.722l0.049-0.015c0.839-0.284 1.707-0.373 2.592-0.373 8.197 0.004 16.396-0.004 24.594 0.007 2.404 0.002 4.348 0.956 5.79 2.853 0.708 0.932 1.131 1.991 1.275 3.15 0.050 0.389 0.071 0.786 0.071 1.18 0.007 3.040 0.005 6.080 0.004 9.12 0 0.476-0.119 0.908-0.516 1.223-0.421 0.332-0.889 0.418-1.39 0.215-0.458-0.167-0.79-0.573-0.849-1.062l-0.001-0.006c-0.036-0.26-0.030-0.524-0.036-0.788-0.012-0.423-0.19-0.677-0.546-0.756-0.078-0.018-0.16-0.018-0.242-0.018h-15.957zM19.381 0.889h10.37c1.157 0 2.24 0.254 3.173 0.96 1.202 0.905 1.902 2.098 1.961 3.593 0.050 1.269 0.028 2.542 0.034 3.812 0.004 0.818 0 1.637 0 2.457 0 0.007 0 0.015 0 0.024 0 0.070-0.009 0.138-0.025 0.202l0.001-0.006c-0.060 0.222-0.183 0.309-0.412 0.267-0.249-0.046-0.492-0.148-0.743-0.174-0.588-0.064-1.18-0.107-1.772-0.139-0.395-0.020-0.516-0.089-0.572-0.473-0.178-1.209-1.316-2.299-2.773-2.281-1.623 0.018-3.246 0.004-4.869 0.004-1.209 0-2.24 0.708-2.649 1.824-0.059 0.16-0.082 0.334-0.112 0.503-0.057 0.302-0.171 0.414-0.476 0.418-0.64 0.007-1.28 0.007-1.92 0-0.293-0.002-0.409-0.117-0.462-0.452-0.075-0.484-0.275-0.912-0.565-1.261l0.003 0.004c-0.548-0.667-1.257-1.031-2.13-1.033-1.675-0.009-3.351-0.005-5.028-0.002-1.408 0-2.51 1.084-2.69 2.274-0.057 0.384-0.172 0.452-0.569 0.476-0.652 0.043-1.307 0.103-1.957 0.172-0.201 0.021-0.391 0.107-0.592 0.139-0.213 0.036-0.313-0.036-0.373-0.244-0.023-0.075-0.036-0.162-0.036-0.252 0-0.001 0-0.002 0-0.003v0c0-1.963-0.027-3.927 0.005-5.892 0.036-2.053 1.001-3.564 2.887-4.478 0.747-0.359 1.557-0.441 2.379-0.441h9.915z"></path>
</symbol>
<symbol id="icon-bathroom" viewBox="0 0 32 32">
<path d="M1.847 20.745h14.313v2.63h8.948v-2.625h3.553c0.231 3.127 0.249 5.913-2.959 8.036-0.039 0.026-0.071 0.061-0.159 0.138l1.168 0.972-1.415 1.354c-0.422-0.436-0.879-0.941-1.376-1.401-0.145-0.137-0.406-0.192-0.618-0.204-0.346-0.022-0.698 0.033-1.047 0.035-4.647 0.003-9.295 0.003-13.943 0.003-0.223 0-0.461 0.042-0.666-0.020-0.62-0.186-1.014 0.102-1.382 0.545-0.316 0.378-0.673 0.72-1.001 1.066l-1.286-1.353 1.098-0.975c-0.291-0.208-0.511-0.353-0.719-0.515-1.553-1.197-2.393-2.784-2.502-4.735-0.055-0.966-0.010-1.937-0.010-2.953zM1.856 13.508c-0.009-0.173-0.022-0.329-0.022-0.484 0-2.531-0.004-5.062 0-7.593 0.004-2.784 1.935-4.726 4.713-4.704 0.932 0.007 1.894-0.013 2.79 0.199 1.59 0.375 2.591 1.478 3.073 3.030 0.095 0.301 0.215 0.448 0.547 0.538 1.871 0.506 3.183 2.255 3.207 4.205 0.004 0.314 0 0.628 0 0.97h-8.854c-0.422-2.233 0.791-4.538 3.327-5.257-0.228-0.996-1.21-1.837-2.24-1.873-0.349-0.014-0.758-0.022-1.169-0.022s-0.821 0.008-1.228 0.024l0.059-0.002c-1.341 0.052-2.422 1.286-2.426 2.764-0.010 2.545-0.003 5.094-0.003 7.641v0.561l-1.775 0.001zM16.135 18.957h-14.116c-0.979 0-1.683-0.465-1.932-1.255-0.372-1.191 0.471-2.337 1.757-2.355 1.367-0.017 2.736-0.004 4.105-0.004h10.186v3.613z"></path>
<path d="M23.308 21.631h-5.324c-0.010-0.169-0.023-0.32-0.023-0.474-0.003-1.844-0.003-3.69 0-5.535 0-1.335 0.729-2.068 2.058-2.074 0.493-0.001 0.986-0.012 1.479 0.003 1.105 0.035 1.83 0.78 1.833 1.891 0.006 1.924 0.001 3.847 0 5.773 0 0.125-0.015 0.249-0.023 0.416zM25.139 18.938v-3.596c0.865 0 1.719-0.003 2.572 0 0.444 0.003 0.897-0.033 1.332 0.038 0.948 0.157 1.565 0.934 1.527 1.84-0.039 0.89-0.695 1.654-1.628 1.702-1.249 0.065-2.505 0.016-3.802 0.016z"></path>
</symbol>
<symbol id="icon-villa" viewBox="0 0 31 32">
<path d="M6.144 25.984v-19.968h-0.384c-0.636 0-1.152-0.516-1.152-1.152s0.516-1.152 1.152-1.152h19.2c0.636 0 1.152 0.516 1.152 1.152s-0.516 1.152-1.152 1.152h-0.384v19.968h0.384c0.636 0 1.152 0.516 1.152 1.152s-0.516 1.152-1.152 1.152h-5.376c-0.636 0-1.152-0.516-1.152-1.152v0-3.84c0-0.636-0.516-1.152-1.152-1.152v0h-3.84c-0.636 0-1.152 0.516-1.152 1.152v0 3.84c0 0.636-0.516 1.152-1.152 1.152v0h-5.376c-0.636 0-1.152-0.516-1.152-1.152s0.516-1.152 1.152-1.152h0.384zM10.752 9.088c0-0.424 0.344-0.768 0.768-0.768v0h1.536c0.424 0 0.768 0.344 0.768 0.768v0 1.536c0 0.424-0.344 0.768-0.768 0.768v0h-1.536c-0.424 0-0.768-0.344-0.768-0.768v0-1.536zM11.52 14.464c-0.424 0-0.768 0.344-0.768 0.768v0 1.536c0 0.424 0.344 0.768 0.768 0.768v0h1.536c0.424 0 0.768-0.344 0.768-0.768v0-1.536c0-0.424-0.344-0.768-0.768-0.768v0h-1.536zM16.896 9.088c0-0.424 0.344-0.768 0.768-0.768h1.536c0.424 0 0.768 0.344 0.768 0.768v0 1.536c0 0.424-0.344 0.768-0.768 0.768v0h-1.536c-0.424 0-0.768-0.344-0.768-0.768v0-1.536zM17.664 14.464c-0.424 0-0.768 0.344-0.768 0.768v0 1.536c0 0.424 0.344 0.768 0.768 0.768v0h1.536c0.424 0 0.768-0.344 0.768-0.768v0-1.536c0-0.424-0.344-0.768-0.768-0.768v0h-1.536z"></path>
</symbol>
<symbol id="icon-star" viewBox="0 0 32 32">
<path d="M14.777 1.905c0.263-0.404 0.712-0.668 1.223-0.668s0.96 0.263 1.22 0.662l0.003 0.006 4.422 6.881c0.196 0.302 0.494 0.524 0.844 0.619l0.010 0.002 7.911 2.077c0.629 0.169 1.085 0.735 1.085 1.407 0 0.35-0.124 0.672-0.33 0.923l0.002-0.003-5.178 6.332c-0.205 0.249-0.33 0.571-0.33 0.922 0 0.029 0.001 0.057 0.002 0.086l-0-0.004 0.468 8.167c0.002 0.025 0.002 0.054 0.002 0.083 0 0.803-0.651 1.455-1.455 1.455-0.19 0-0.371-0.036-0.537-0.102l0.010 0.003-7.622-2.97c-0.157-0.063-0.338-0.099-0.528-0.099s-0.371 0.036-0.538 0.103l0.010-0.003-7.622 2.97c-0.156 0.063-0.338 0.099-0.528 0.099-0.803 0-1.455-0.651-1.455-1.455 0-0.030 0.001-0.059 0.003-0.089l-0 0.004 0.468-8.164c0.002-0.025 0.002-0.054 0.002-0.083 0-0.35-0.124-0.672-0.33-0.923l0.002 0.003-5.178-6.333c-0.204-0.249-0.328-0.57-0.328-0.921 0-0.672 0.456-1.237 1.075-1.404l0.010-0.002 7.91-2.079c0.361-0.097 0.659-0.319 0.852-0.615l0.003-0.006 4.42-6.881z"></path>
</symbol>
<symbol id="icon-facebook" viewBox="0 0 32 32">
<path d="M20.992 5.312h3.008v-5.088c-1.296-0.143-2.799-0.224-4.321-0.224-0.022 0-0.044 0-0.067 0h0.003c-4.352 0-7.328 2.656-7.328 7.52v4.192h-4.912v5.696h4.912v14.592h5.888v-14.592h4.896l0.736-5.696h-5.632v-3.632c0-1.68 0.448-2.768 2.816-2.768z"></path>
</symbol>
<symbol id="icon-linkedin" viewBox="0 0 32 32">
<path d="M27.293 2.667h-22.587c-0.008-0-0.017-0-0.027-0-1.058 0-1.918 0.851-1.933 1.905l-0 0.001v22.853c0.015 1.056 0.875 1.907 1.933 1.907 0.009 0 0.019-0 0.028-0l-0.001 0h22.587c0.008 0 0.017 0 0.026 0 1.059 0 1.919-0.85 1.934-1.905l0-0.001v-22.853c-0.015-1.056-0.875-1.907-1.933-1.907-0.009 0-0.019 0-0.028 0l0.001-0zM10.787 24.987h-4v-12h4v12zM8.787 11.307c-1.149 0-2.080-0.931-2.080-2.080s0.931-2.080 2.080-2.080v0c0.071-0.008 0.153-0.013 0.236-0.013 1.156 0 2.093 0.937 2.093 2.093s-0.937 2.093-2.093 2.093c-0.083 0-0.165-0.005-0.246-0.014l0.010 0.001zM25.213 24.987h-4v-6.44c0-1.613-0.573-2.667-2.027-2.667-0.941 0.007-1.74 0.604-2.048 1.438l-0.005 0.015c-0.087 0.251-0.137 0.541-0.137 0.842 0 0.046 0.001 0.092 0.003 0.138l-0-0.006v6.667h-4v-12h4v1.693c0.704-1.206 1.992-2.003 3.466-2.003 0.052 0 0.104 0.001 0.155 0.003l-0.007-0c2.667 0 4.6 1.72 4.6 5.413v6.907z"></path>
</symbol>
<symbol id="icon-twitter" viewBox="0 0 32 32">
<path d="M29.333 7.733c-0.916 0.409-1.979 0.709-3.091 0.848l-0.055 0.006c1.133-0.685 1.986-1.737 2.402-2.988l0.011-0.039c-1.002 0.607-2.167 1.069-3.41 1.321l-0.070 0.012c-1.002-1.084-2.431-1.761-4.019-1.761-3.019 0-5.467 2.447-5.467 5.467 0 0.455 0.055 0.896 0.16 1.318l-0.008-0.038c-4.555-0.237-8.56-2.404-11.245-5.692l-0.022-0.028c-0.461 0.791-0.733 1.742-0.733 2.756 0 0.001 0 0.003 0 0.004v-0c0 0.003 0 0.007 0 0.010 0 1.884 0.955 3.544 2.407 4.524l0.019 0.012c-0.914-0.026-1.765-0.275-2.507-0.694l0.027 0.014v0.067c0.014 2.63 1.883 4.819 4.365 5.327l0.035 0.006c-0.438 0.138-0.941 0.221-1.463 0.227l-0.003 0c-0.366-0.004-0.721-0.038-1.066-0.099l0.039 0.006c0.725 2.184 2.728 3.739 5.101 3.787l0.006 0c-1.845 1.462-4.207 2.345-6.775 2.345-0.46 0-0.913-0.028-1.359-0.083l0.053 0.005c2.363 1.547 5.258 2.467 8.368 2.467 0.007 0 0.013 0 0.020 0h-0.001c0.048 0.001 0.105 0.001 0.162 0.001 8.534 0 15.452-6.918 15.452-15.452 0-0.043-0-0.086-0.001-0.129l0 0.007v-0.707c1.048-0.787 1.933-1.723 2.641-2.786l0.026-0.041z"></path>
</symbol>
<symbol id="icon-youtube" viewBox="0 0 32 32">
<path d="M30.667 12.947c0.004-0.117 0.007-0.254 0.007-0.392 0-1.866-0.451-3.626-1.25-5.179l0.030 0.064c-0.573-0.682-1.366-1.161-2.269-1.33l-0.024-0.004c-2.83-0.272-6.117-0.427-9.442-0.427-0.604 0-1.207 0.005-1.809 0.015l0.091-0.001c-0.537-0.010-1.17-0.016-1.805-0.016-3.279 0-6.524 0.151-9.726 0.446l0.411-0.031c-0.762 0.142-1.425 0.492-1.948 0.988l0.002-0.002c-1.2 1.107-1.333 3-1.467 4.6-0.092 1.292-0.145 2.8-0.145 4.32s0.053 3.028 0.156 4.522l-0.011-0.202c0.042 0.967 0.186 1.88 0.42 2.756l-0.020-0.089c0.16 0.673 0.487 1.296 0.947 1.813 0.527 0.522 1.205 0.891 1.963 1.036l0.024 0.004c2.875 0.355 5.771 0.501 8.667 0.44 4.667 0.067 8.76 0 13.6-0.373 0.801-0.14 1.499-0.511 2.041-1.041l-0.001 0.001c0.373-0.373 0.653-0.831 0.813-1.333 0.477-1.463 0.711-2.995 0.693-4.533 0.053-0.747 0.053-5.253 0.053-6.053zM12.987 19.8v-8.253l7.893 4.147c-2.213 1.227-5.133 2.613-7.893 4.107z"></path>
</symbol>
<symbol id="icon-mail" viewBox="0 0 32 32">
<path d="M22.667 9.333h1.333v1.333c0 0.736 0.597 1.333 1.333 1.333s1.333-0.597 1.333-1.333v0-1.333h1.333c0.736 0 1.333-0.597 1.333-1.333s-0.597-1.333-1.333-1.333v0h-1.333v-1.333c0-0.736-0.597-1.333-1.333-1.333s-1.333 0.597-1.333 1.333v0 1.333h-1.333c-0.736 0-1.333 0.597-1.333 1.333s0.597 1.333 1.333 1.333v0zM28 14.667c-0.736 0-1.333 0.597-1.333 1.333v0 8c0 0.736-0.597 1.333-1.333 1.333v0h-18.667c-0.736 0-1.333-0.597-1.333-1.333v0-12.787l7.84 7.853c0.724 0.723 1.723 1.17 2.827 1.17s2.103-0.447 2.827-1.17l3.293-3.293c0.242-0.242 0.392-0.577 0.392-0.947 0-0.739-0.599-1.339-1.339-1.339-0.37 0-0.704 0.15-0.947 0.392l-3.293 3.293c-0.24 0.236-0.57 0.381-0.933 0.381s-0.693-0.145-0.934-0.381l0 0-7.853-7.84h10.12c0.736 0 1.333-0.597 1.333-1.333s-0.597-1.333-1.333-1.333v0h-10.667c-2.209 0-4 1.791-4 4v0 13.333c0 2.209 1.791 4 4 4v0h18.667c2.209 0 4-1.791 4-4v0-8c0-0.736-0.597-1.333-1.333-1.333v0z"></path>
</symbol>
<symbol id="icon-send" viewBox="0 0 32 32">
<path d="M28.57 3.438c-0.469-0.477-1.121-0.772-1.842-0.772-0.26 0-0.512 0.038-0.749 0.11l0.018-0.005-21.454 6.198c-0.948 0.264-1.664 1.037-1.841 1.999l-0.002 0.016c-0.19 0.994 0.471 2.258 1.335 2.786l6.708 4.096c0.259 0.161 0.574 0.257 0.912 0.257 0.482 0 0.918-0.195 1.233-0.511l7.681-7.682c0.179-0.186 0.429-0.301 0.707-0.301s0.528 0.115 0.706 0.301l0 0c0.179 0.182 0.29 0.431 0.29 0.707s-0.111 0.525-0.29 0.707l0-0-7.695 7.682c-0.316 0.316-0.511 0.753-0.511 1.235 0 0.336 0.095 0.65 0.259 0.917l-0.004-0.008 4.098 6.734c0.452 0.756 1.267 1.253 2.197 1.253 0.006 0 0.011-0 0.017-0h-0.001c0.107 0 0.226 0 0.333-0.014 1.038-0.13 1.877-0.857 2.169-1.822l0.005-0.018 6.359-21.293c0.070-0.224 0.111-0.482 0.111-0.749 0-0.711-0.287-1.356-0.751-1.824l0 0z"></path>
<path opacity="0.4" d="M12.603 25.523c0.18 0.181 0.292 0.431 0.292 0.707s-0.111 0.526-0.292 0.707l0-0-1.822 1.82c-0.18 0.181-0.429 0.293-0.704 0.293-0.001 0-0.002 0-0.003 0h0c-0.001 0-0.002 0-0.002 0-0.551 0-0.998-0.447-0.998-0.998 0-0.277 0.113-0.527 0.295-0.708l1.82-1.821c0.181-0.181 0.431-0.292 0.708-0.292s0.526 0.112 0.708 0.292l-0-0zM11.557 20.473c0.18 0.181 0.292 0.431 0.292 0.707s-0.111 0.526-0.292 0.707l0-0-1.822 1.82c-0.18 0.181-0.429 0.293-0.704 0.293-0.001 0-0.001 0-0.002 0h0c-0.001 0-0.002 0-0.002 0-0.551 0-0.998-0.447-0.998-0.998 0-0.277 0.113-0.527 0.295-0.708l1.82-1.821c0.181-0.18 0.431-0.292 0.707-0.292s0.526 0.111 0.707 0.292l-0-0zM6.542 18.883c0.18 0.181 0.292 0.431 0.292 0.707s-0.112 0.526-0.292 0.707l-1.821 1.82c-0.18 0.181-0.429 0.293-0.704 0.293-0.001 0-0.002 0-0.003 0h0c-0.001 0-0.002 0-0.004 0-0.551 0-0.998-0.447-0.998-0.998 0-0.277 0.113-0.527 0.295-0.708l1.821-1.822c0.181-0.18 0.431-0.292 0.707-0.292s0.526 0.111 0.707 0.292l-0-0z"></path>
</symbol>
<symbol id="icon-client" viewBox="0 0 32 32">
<path d="M11 9c-0-0.020-0-0.044-0-0.069 0-2.762 2.239-5 5-5s5 2.239 5 5c0 0.024-0 0.048-0 0.072l0-0.004c-0.039 2.732-2.262 4.932-5 4.932s-4.961-2.2-5-4.928l-0-0.004zM21 13c0-2.209 1.791-4 4-4s4 1.791 4 4v0c0 2.209-1.791 4-4 4s-4-1.791-4-4v0zM3 13c0-2.209 1.791-4 4-4s4 1.791 4 4v0c0 2.209-1.791 4-4 4s-4-1.791-4-4v0zM8.413 20.156c1.623-2.515 4.411-4.156 7.582-4.156 0.002 0 0.003 0 0.005 0h-0c0.001 0 0.003 0 0.005 0 3.172 0 5.961 1.642 7.562 4.123l0.021 0.035c0.885 1.374 1.411 3.052 1.411 4.853 0 0.348-0.020 0.69-0.058 1.028l0.004-0.041c-0.037 0.325-0.225 0.6-0.491 0.755l-0.005 0.003c-2.419 1.412-5.325 2.246-8.425 2.246-0.008 0-0.017 0-0.025-0h0.001c-3.073 0-5.96-0.817-8.449-2.246-0.271-0.158-0.459-0.432-0.496-0.753l-0-0.005c-0.034-0.296-0.054-0.639-0.054-0.987 0-1.801 0.526-3.48 1.434-4.89l-0.022 0.036z"></path>
<path d="M6.776 19.005l-0.048 0.074c-1.083 1.679-1.727 3.73-1.727 5.932 0 0.296 0.012 0.589 0.035 0.879l-0.002-0.038c-0.891-0.137-1.683-0.342-2.443-0.616l0.090 0.028-0.153-0.054c-0.276-0.099-0.474-0.348-0.499-0.646l-0-0.003-0.012-0.162c-0.010-0.12-0.016-0.259-0.016-0.4 0-2.683 2.113-4.872 4.766-4.995l0.011-0zM26.968 25.852c0.020-0.252 0.032-0.545 0.032-0.841 0-2.233-0.662-4.311-1.801-6.048l0.026 0.042c2.663 0.124 4.776 2.313 4.776 4.995 0 0.141-0.006 0.28-0.017 0.418l0.001-0.018-0.013 0.162c-0.024 0.301-0.223 0.549-0.494 0.647l-0.005 0.002-0.152 0.054c-0.669 0.245-1.461 0.45-2.279 0.578l-0.073 0.009z"></path>
</symbol>
<symbol id="icon-hat" viewBox="0 0 33 32">
<path d="M16.071 3.74c0.255-0.111 0.546-0.111 0.8 0 5.379 2.374 9.991 5.010 14.292 8.056l-0.252-0.169c0.259 0.183 0.426 0.481 0.426 0.819 0 0.458-0.308 0.843-0.727 0.962l-0.007 0.002c-5.053 1.413-9.436 3.191-13.56 5.391l0.358-0.175-0.005 0.002-0.453 0.24c-0.136 0.074-0.299 0.118-0.472 0.118s-0.335-0.044-0.477-0.121l0.005 0.003c-1.418-0.786-3.235-1.669-5.096-2.469l-0.433-0.166v-0.298c0-0.175 0.090-0.33 0.23-0.414 1.653-1.029 3.685-2.148 5.774-3.17l0.43-0.19c0.32-0.171 0.534-0.503 0.534-0.885 0-0.553-0.448-1-1-1-0.144 0-0.282 0.031-0.406 0.086l0.006-0.003c-2.587 1.245-4.675 2.394-6.699 3.637l0.325-0.186c-0.585 0.359-1.004 0.939-1.143 1.622l-0.003 0.016c-1.556-0.633-3.612-1.328-5.71-1.923l-0.469-0.114c-0.427-0.12-0.734-0.506-0.734-0.964 0-0.337 0.167-0.636 0.423-0.817l0.003-0.002c4.049-2.876 8.66-5.512 13.525-7.681l0.514-0.205z"></path>
<path d="M17.885 20.631c2.873-1.576 6.251-3.057 9.765-4.243l0.455-0.134c0.179 1.886 0.294 3.792 0.341 5.713 0.009 0.412-0.234 0.789-0.615 0.948-4.152 1.751-7.704 3.689-11.033 5.933l0.227-0.144c-0.156 0.105-0.348 0.168-0.555 0.168s-0.399-0.063-0.558-0.17l0.004 0.002c-3.102-2.099-6.654-4.038-10.389-5.63l-0.417-0.158c-0.364-0.155-0.615-0.509-0.615-0.923 0-0.009 0-0.018 0-0.026l-0 0.001c0.053-2.104 0.175-4.087 0.367-6.049l-0.027 0.336c1.228 0.405 2.44 0.845 3.634 1.32v1.694c-0.602 0.352-1.001 0.995-1.001 1.732 0 0.658 0.318 1.242 0.809 1.606l0.005 0.004c-0.134 0.563-0.316 1.057-0.548 1.521l0.018-0.040c0.976 0.451 1.566 0.746 2.149 1.049l-0.354-0.167c0.311-0.617 0.565-1.335 0.724-2.086l0.010-0.059c0.705-0.319 1.187-1.017 1.187-1.827 0-0.737-0.398-1.38-0.991-1.727l-0.009-0.005v-0.86c1.95 0.85 3.457 1.594 4.929 2.393l-0.341-0.169c0.409 0.223 0.896 0.354 1.414 0.354s1.004-0.131 1.429-0.362l-0.016 0.008z"></path>
<path d="M6.421 25.95c0.53-0.529 0.976-1.143 1.315-1.819l0.018-0.040c0.976 0.451 1.566 0.746 2.149 1.049l-0.354-0.167c-0.46 0.922-1.033 1.711-1.716 2.391l-0 0c-0.178 0.164-0.416 0.264-0.677 0.264-0.553 0-1-0.448-1-1 0-0.262 0.1-0.5 0.265-0.678l-0.001 0.001z"></path>
</symbol>
<symbol id="icon-kubik" viewBox="0 0 31 32">
<path fill="none" stroke="#999" style="stroke: var(--color1, #999)" stroke-linejoin="round" stroke-linecap="round" stroke-miterlimit="4" stroke-width="1.92" d="M4.8 8.32c0-1.591 1.289-2.88 2.88-2.88v0h2.88c1.591 0 2.88 1.289 2.88 2.88v0 2.88c0 1.591-1.289 2.88-2.88 2.88v0h-2.88c-1.591 0-2.88-1.289-2.88-2.88v0-2.88zM4.8 20.8c0-1.591 1.289-2.88 2.88-2.88v0h2.88c1.591 0 2.88 1.289 2.88 2.88v0 2.88c0 1.591-1.289 2.88-2.88 2.88v0h-2.88c-1.591 0-2.88-1.289-2.88-2.88v0-2.88zM17.28 8.32c0-1.591 1.289-2.88 2.88-2.88v0h2.88c1.591 0 2.88 1.289 2.88 2.88v0 2.88c0 1.591-1.289 2.88-2.88 2.88v0h-2.88c-1.591 0-2.88-1.289-2.88-2.88v0-2.88zM17.28 20.8c0-1.591 1.289-2.88 2.88-2.88v0h2.88c1.591 0 2.88 1.289 2.88 2.88v0 2.88c0 1.591-1.289 2.88-2.88 2.88v0h-2.88c-1.591 0-2.88-1.289-2.88-2.88v0-2.88z"></path>
</symbol>
<symbol id="icon-lightining" viewBox="0 0 32 32">
<path fill="none" stroke="#999" style="stroke: var(--color1, #999)" stroke-linejoin="round" stroke-linecap="round" stroke-miterlimit="4" stroke-width="1.92" d="M5.76 17.92l13.44-14.4-2.88 10.56h10.56l-13.44 14.4 2.88-10.56h-10.56z"></path>
</symbol>
<symbol id="icon-close" viewBox="0 0 32 32">
<path d="M32 3.223l-3.223-3.223-12.777 12.777-12.777-12.777-3.223 3.223 12.777 12.777-12.777 12.777 3.223 3.223 12.777-12.777 12.777 12.777 3.223-3.223-12.777-12.777 12.777-12.777z"></path>
</symbol>
<symbol id="icon-phone" viewBox="0 0 32 32">
<path d="M22 20c-2 2-2 4-4 4s-4-2-6-4-4-4-4-6 2-2 4-4-4-8-6-8-6 6-6 6c0 4 4.109 12.109 8 16s12 8 16 8c0 0 6-4 6-6s-6-8-8-6z"></path>
</symbol>
<symbol id="icon-email" viewBox="0 0 32 32">
<path d="M29 4h-26c-1.65 0-3 1.35-3 3v20c0 1.65 1.35 3 3 3h26c1.65 0 3-1.35 3-3v-20c0-1.65-1.35-3-3-3zM12.461 17.199l-8.461 6.59v-15.676l8.461 9.086zM5.512 8h20.976l-10.488 7.875-10.488-7.875zM12.79 17.553l3.21 3.447 3.21-3.447 6.58 8.447h-19.579l6.58-8.447zM19.539 17.199l8.461-9.086v15.676l-8.461-6.59z"></path>
</symbol>
<symbol id="icon-name" viewBox="0 0 32 32">
<path d="M18 22.082v-1.649c2.203-1.241 4-4.337 4-7.432 0-4.971 0-9-6-9s-6 4.029-6 9c0 3.096 1.797 6.191 4 7.432v1.649c-6.784 0.555-12 3.888-12 7.918h28c0-4.030-5.216-7.364-12-7.918z"></path>
</symbol>
</defs>
</svg>
