<svg aria-hidden="true" style="position: absolute; width: 0; height: 0; overflow: hidden;" version="1.1" xmlns="http://www.w3.org/2000/svg" xmlns:xlink="http://www.w3.org/1999/xlink">
<defs>
<symbol id="icon-home" viewBox="0 0 33 32">
<path d="M5.077 11.394c0.869 0.869 2.069 1.406 3.394 1.406 1.662 0 3.127-0.845 3.989-2.129l0.011-0.017c0.871 1.301 2.335 2.146 3.997 2.146 0.001 0 0.002 0 0.003 0h-0c0.001 0 0.002 0 0.003 0 1.661 0 3.126-0.845 3.986-2.129l0.011-0.017c0.873 1.299 2.337 2.143 3.997 2.143 2.651 0 4.8-2.149 4.8-4.8 0-1.324-0.536-2.523-1.403-3.391l-0.469-0.469c-0.579-0.579-1.379-0.937-2.263-0.937h-17.327c-0.884 0-1.684 0.358-2.263 0.937l-0.468 0.468c-0.869 0.869-1.406 2.069-1.406 3.394s0.537 2.526 1.406 3.394v0zM5.271 14.452c0.933 0.471 2.033 0.748 3.198 0.748 1.492 0 2.878-0.453 4.028-1.229l-0.026 0.016c1.12 0.76 2.502 1.213 3.99 1.213 0.003 0 0.007 0 0.011 0h-0.001c0.003 0 0.006 0 0.010 0 1.488 0 2.87-0.453 4.015-1.229l-0.025 0.016c1.125 0.76 2.511 1.213 4.002 1.213 1.165 0 2.265-0.276 3.239-0.767l-0.041 0.019v11.948h0.4c0.663 0 1.2 0.537 1.2 1.2s-0.537 1.2-1.2 1.2h-7.2c-0.663 0-1.2-0.536-1.2-1.2v-5.6c0-0.663-0.536-1.2-1.2-1.2h-4c-0.663 0-1.2 0.536-1.2 1.2v5.6c0 0.663-0.536 1.2-1.2 1.2h-7.2c-0.663 0-1.2-0.537-1.2-1.2s0.537-1.2 1.2-1.2h0.4v-11.948z"></path>
</symbol>
<symbol id="icon-management" viewBox="0 0 33 32">
<path d="M2.071 4.4c0-0.663 0.537-1.2 1.2-1.2h16.8c0.663 0 1.2 0.537 1.2 1.2s-0.537 1.2-1.2 1.2h-0.4v22c0 0.663-0.536 1.2-1.2 1.2h-2.4c-0.663 0-1.2-0.536-1.2-1.2v-4c0-0.663-0.536-1.2-1.2-1.2h-4c-0.663 0-1.2 0.536-1.2 1.2v4c0 0.663-0.536 1.2-1.2 1.2h-4c-0.663 0-1.2-0.537-1.2-1.2s0.537-1.2 1.2-1.2h0.4v-20.8h-0.4c-0.663 0-1.2-0.536-1.2-1.2zM6.871 8.8c0-0.442 0.358-0.8 0.8-0.8h1.6c0.442 0 0.8 0.358 0.8 0.8v1.6c0 0.442-0.358 0.8-0.8 0.8h-1.6c-0.442 0-0.8-0.358-0.8-0.8v0-1.6zM7.671 14.4c-0.442 0-0.8 0.358-0.8 0.8v0 1.6c0 0.442 0.358 0.8 0.8 0.8h1.6c0.442 0 0.8-0.358 0.8-0.8v-1.6c0-0.442-0.358-0.8-0.8-0.8h-1.6zM13.271 8.8c0-0.442 0.358-0.8 0.8-0.8h1.6c0.442 0 0.8 0.358 0.8 0.8v1.6c0 0.442-0.358 0.8-0.8 0.8h-1.6c-0.442 0-0.8-0.358-0.8-0.8v0-1.6zM14.071 14.4c-0.442 0-0.8 0.358-0.8 0.8v0 1.6c0 0.442 0.358 0.8 0.8 0.8h1.6c0.442 0 0.8-0.358 0.8-0.8v-1.6c0-0.442-0.358-0.8-0.8-0.8v0h-1.6zM23.271 9.6c-0.663 0-1.2 0.536-1.2 1.2v16.4c0 0.884 0.716 1.6 1.6 1.6h6c0.663 0 1.2-0.537 1.2-1.2s-0.537-1.2-1.2-1.2h-0.4v-14.4h0.4c0.663 0 1.2-0.537 1.2-1.2s-0.537-1.2-1.2-1.2h-6.4zM24.071 15.2c0-0.442 0.358-0.8 0.8-0.8h1.6c0.442 0 0.8 0.358 0.8 0.8v1.6c0 0.442-0.358 0.8-0.8 0.8h-1.6c-0.442 0-0.8-0.358-0.8-0.8v0-1.6zM24.871 20.8c-0.442 0-0.8 0.358-0.8 0.8v0 1.6c0 0.442 0.358 0.8 0.8 0.8h1.6c0.442 0 0.8-0.358 0.8-0.8v-1.6c0-0.442-0.358-0.8-0.8-0.8v0h-1.6z"></path>
</symbol>
<symbol id="icon-sun" viewBox="0 0 33 32">
<path d="M16.471 3c0.552 0 1 0.447 1 1v3c-0.017 0.539-0.458 0.97-1 0.97s-0.983-0.431-1-0.968l-0-0.002v-3c0-0.552 0.447-1 1-1zM10.471 16c0-3.314 2.686-6 6-6s6 2.686 6 6v0c0 3.314-2.686 6-6 6s-6-2.686-6-6v0zM25.663 8.222c0.173-0.179 0.279-0.424 0.279-0.693 0-0.553-0.448-1-1-1-0.269 0-0.513 0.106-0.693 0.279l0-0-2.12 2.121c-0.181 0.181-0.293 0.431-0.293 0.707 0 0.552 0.448 1 1 1 0.276 0 0.526-0.112 0.707-0.293l2.121-2.12zM29.471 16c0 0.552-0.448 1-1 1h-3c-0.539-0.017-0.97-0.458-0.97-1s0.431-0.983 0.968-1l0.002-0h3c0.552 0 1 0.447 1 1zM24.248 25.192c0.18 0.173 0.424 0.279 0.693 0.279 0.553 0 1-0.448 1-1 0-0.269-0.106-0.513-0.279-0.693l0 0-2.121-2.121c-0.181-0.181-0.431-0.293-0.707-0.293-0.552 0-1 0.448-1 1 0 0.276 0.112 0.526 0.293 0.707l2.121 2.121zM16.471 24c0.552 0 1 0.448 1 1v3c-0.017 0.539-0.458 0.97-1 0.97s-0.983-0.431-1-0.968l-0-0.002v-3c0-0.552 0.447-1 1-1zM10.814 23.071c0.173-0.18 0.279-0.424 0.279-0.693 0-0.553-0.448-1-1-1-0.269 0-0.513 0.106-0.693 0.279l0-0-2.121 2.121c-0.173 0.18-0.279 0.424-0.279 0.693 0 0.553 0.448 1 1 1 0.269 0 0.513-0.106 0.693-0.279l-0 0 2.121-2.121zM8.471 16c0 0.552-0.448 1-1 1h-3c-0.539-0.017-0.97-0.458-0.97-1s0.431-0.983 0.968-1l0.002-0h3c0.552 0 1 0.447 1 1zM9.4 10.344c0.181 0.181 0.431 0.293 0.707 0.293 0.552 0 1-0.448 1-1 0-0.276-0.112-0.526-0.293-0.707l-2.121-2.121c-0.179-0.173-0.424-0.279-0.693-0.279-0.553 0-1 0.448-1 1 0 0.269 0.106 0.513 0.279 0.693l-0-0 2.121 2.12z"></path>
</symbol>
<symbol id="icon-value" viewBox="0 0 33 32">
<path d="M16.471 10c-0.016-0-0.034-0-0.053-0-1.657 0-3 1.343-3 3s1.343 3 3 3c0.019 0 0.037-0 0.056-0.001l-0.003 0c1.634-0.030 2.947-1.362 2.947-3s-1.313-2.97-2.945-3l-0.003-0z"></path>
<path d="M2.47 6.5v13.001c0 1.381 1.119 2.5 2.5 2.5h23.002c1.381 0 2.5-1.119 2.5-2.5v-13.001c0-1.381-1.119-2.5-2.5-2.5h-23.001c-1.381 0-2.5 1.119-2.5 2.5zM11.471 13c-0-0.020-0-0.044-0-0.069 0-2.762 2.239-5 5-5s5 2.239 5 5c0 0.024-0 0.048-0 0.072l0-0.004c-0.039 2.732-2.262 4.932-5 4.932s-4.961-2.2-5-4.928l-0-0.004zM25.471 12h0.009c0.552 0 1 0.448 1 1v0.009c0 0.552-0.448 1-1 1h-0.009c-0.552 0-1-0.448-1-1v-0.009c0-0.552 0.448-1 1-1zM6.471 13c0-0.552 0.448-1 1-1h0.009c0.552 0 1 0.448 1 1v0.009c0 0.552-0.448 1-1 1h-0.009c-0.553 0-1-0.448-1-1v-0.009z"></path>
<path d="M3.471 24c-0.539 0.017-0.97 0.458-0.97 1s0.431 0.983 0.968 1l0.002 0c7.2 0 14.173 0.963 20.8 2.767 1.587 0.431 3.2-0.744 3.2-2.427v-1.34c0-0.552-0.448-1-1-1h-23z"></path>
</symbol>
<symbol id="icon-arrow-right-top" viewBox="0 0 32 32">
<path fill="none" stroke="#4d4d4d" style="stroke: var(--color1, #4d4d4d)" stroke-linejoin="round" stroke-linecap="round" stroke-miterlimit="4" stroke-width="1.8824" d="M6 26l20-20M26 6h-15M26 6v15"></path>
</symbol>
<symbol id="icon-arrow-left" viewBox="0 0 32 32">
<path d="M27.2 16c0 0.662-0.538 1.2-1.2 1.2h-17.021l6.653 6.336c0.242 0.22 0.394 0.537 0.394 0.889 0 0.663-0.537 1.2-1.2 1.2-0.336 0-0.64-0.138-0.858-0.361l-0-0-8.8-8.399c-0.227-0.219-0.368-0.525-0.368-0.865s0.141-0.646 0.368-0.865l0-0 8.8-8.4c0.215-0.207 0.509-0.335 0.832-0.335 0.663 0 1.2 0.537 1.2 1.2 0 0.34-0.141 0.646-0.368 0.865l-0 0-6.653 6.335h17.021c0.662 0 1.2 0.538 1.2 1.2z"></path>
</symbol>
<symbol id="icon-arrow-right" viewBox="0 0 32 32">
<path d="M4.8 16c0-0.662 0.538-1.2 1.2-1.2h17.021l-6.653-6.336c-0.242-0.22-0.394-0.537-0.394-0.889 0-0.663 0.537-1.2 1.2-1.2 0.336 0 0.64 0.138 0.858 0.361l0 0 8.8 8.399c0.227 0.219 0.368 0.525 0.368 0.865s-0.141 0.646-0.368 0.865l-0 0-8.8 8.4c-0.215 0.207-0.509 0.335-0.832 0.335-0.663 0-1.2-0.537-1.2-1.2 0-0.34 0.141-0.646 0.368-0.865l0-0 6.653-6.335h-17.021c-0.663 0-1.2-0.537-1.2-1.2v0z"></path>
</symbol>
<symbol id="icon-badroom" viewBox="0 0 39 32">
<path d="M19.577 28.373h-15.989c-0.539 0-0.788 0.245-0.788 0.779 0 0.137 0.007 0.276-0.002 0.412-0.011 0.183-0.032 0.351-0.063 0.516l0.004-0.025c-0.116 0.588-0.679 1.060-1.353 1.052-0.675-0.008-1.233-0.502-1.341-1.148l-0.001-0.008c-0.023-0.138-0.036-0.297-0.036-0.459 0-0 0-0.001 0-0.001v0c-0.002-3.131-0.023-6.263 0.007-9.394 0.018-1.826 0.692-3.413 1.984-4.734 0.758-0.772 1.693-1.367 2.738-1.722l0.049-0.015c0.839-0.284 1.707-0.373 2.592-0.373 8.197 0.004 16.396-0.004 24.594 0.007 2.404 0.002 4.348 0.956 5.79 2.853 0.708 0.932 1.131 1.991 1.275 3.15 0.050 0.389 0.071 0.786 0.071 1.18 0.007 3.040 0.005 6.080 0.004 9.12 0 0.476-0.119 0.908-0.516 1.223-0.421 0.332-0.889 0.418-1.39 0.215-0.458-0.167-0.79-0.573-0.849-1.062l-0.001-0.006c-0.036-0.26-0.030-0.524-0.036-0.788-0.012-0.423-0.19-0.677-0.546-0.756-0.078-0.018-0.16-0.018-0.242-0.018h-15.957zM19.381 0.889h10.37c1.157 0 2.24 0.254 3.173 0.96 1.202 0.905 1.902 2.098 1.961 3.593 0.050 1.269 0.028 2.542 0.034 3.812 0.004 0.818 0 1.637 0 2.457 0 0.007 0 0.015 0 0.024 0 0.070-0.009 0.138-0.025 0.202l0.001-0.006c-0.060 0.222-0.183 0.309-0.412 0.267-0.249-0.046-0.492-0.148-0.743-0.174-0.588-0.064-1.18-0.107-1.772-0.139-0.395-0.020-0.516-0.089-0.572-0.473-0.178-1.209-1.316-2.299-2.773-2.281-1.623 0.018-3.246 0.004-4.869 0.004-1.209 0-2.24 0.708-2.649 1.824-0.059 0.16-0.082 0.334-0.112 0.503-0.057 0.302-0.171 0.414-0.476 0.418-0.64 0.007-1.28 0.007-1.92 0-0.293-0.002-0.409-0.117-0.462-0.452-0.075-0.484-0.275-0.912-0.565-1.261l0.003 0.004c-0.548-0.667-1.257-1.031-2.13-1.033-1.675-0.009-3.351-0.005-5.028-0.002-1.408 0-2.51 1.084-2.69 2.274-0.057 0.384-0.172 0.452-0.569 0.476-0.652 0.043-1.307 0.103-1.957 0.172-0.201 0.021-0.391 0.107-0.592 0.139-0.213 0.036-0.313-0.036-0.373-0.244-0.023-0.075-0.036-0.162-0.036-0.252 0-0.001 0-0.002 0-0.003v0c0-1.963-0.027-3.927 0.005-5.892 0.036-2.053 1.001-3.564 2.887-4.478 0.747-0.359 1.557-0.441 2.379-0.441h9.915z"></path>
</symbol>
<symbol id="icon-bathroom" viewBox="0 0 32 32">
<path d="M1.847 20.745h14.313v2.63h8.948v-2.625h3.553c0.231 3.127 0.249 5.913-2.959 8.036-0.039 0.026-0.071 0.061-0.159 0.138l1.168 0.972-1.415 1.354c-0.422-0.436-0.879-0.941-1.376-1.401-0.145-0.137-0.406-0.192-0.618-0.204-0.346-0.022-0.698 0.033-1.047 0.035-4.647 0.003-9.295 0.003-13.943 0.003-0.223 0-0.461 0.042-0.666-0.020-0.62-0.186-1.014 0.102-1.382 0.545-0.316 0.378-0.673 0.72-1.001 1.066l-1.286-1.353 1.098-0.975c-0.291-0.208-0.511-0.353-0.719-0.515-1.553-1.197-2.393-2.784-2.502-4.735-0.055-0.966-0.010-1.937-0.010-2.953zM1.856 13.508c-0.009-0.173-0.022-0.329-0.022-0.484 0-2.531-0.004-5.062 0-7.593 0.004-2.784 1.935-4.726 4.713-4.704 0.932 0.007 1.894-0.013 2.79 0.199 1.59 0.375 2.591 1.478 3.073 3.030 0.095 0.301 0.215 0.448 0.547 0.538 1.871 0.506 3.183 2.255 3.207 4.205 0.004 0.314 0 0.628 0 0.97h-8.854c-0.422-2.233 0.791-4.538 3.327-5.257-0.228-0.996-1.21-1.837-2.24-1.873-0.349-0.014-0.758-0.022-1.169-0.022s-0.821 0.008-1.228 0.024l0.059-0.002c-1.341 0.052-2.422 1.286-2.426 2.764-0.010 2.545-0.003 5.094-0.003 7.641v0.561l-1.775 0.001zM16.135 18.957h-14.116c-0.979 0-1.683-0.465-1.932-1.255-0.372-1.191 0.471-2.337 1.757-2.355 1.367-0.017 2.736-0.004 4.105-0.004h10.186v3.613z"></path>
<path d="M23.308 21.631h-5.324c-0.010-0.169-0.023-0.32-0.023-0.474-0.003-1.844-0.003-3.69 0-5.535 0-1.335 0.729-2.068 2.058-2.074 0.493-0.001 0.986-0.012 1.479 0.003 1.105 0.035 1.83 0.78 1.833 1.891 0.006 1.924 0.001 3.847 0 5.773 0 0.125-0.015 0.249-0.023 0.416zM25.139 18.938v-3.596c0.865 0 1.719-0.003 2.572 0 0.444 0.003 0.897-0.033 1.332 0.038 0.948 0.157 1.565 0.934 1.527 1.84-0.039 0.89-0.695 1.654-1.628 1.702-1.249 0.065-2.505 0.016-3.802 0.016z"></path>
</symbol>
<symbol id="icon-villa" viewBox="0 0 31 32">
<path d="M6.144 25.984v-19.968h-0.384c-0.636 0-1.152-0.516-1.152-1.152s0.516-1.152 1.152-1.152h19.2c0.636 0 1.152 0.516 1.152 1.152s-0.516 1.152-1.152 1.152h-0.384v19.968h0.384c0.636 0 1.152 0.516 1.152 1.152s-0.516 1.152-1.152 1.152h-5.376c-0.636 0-1.152-0.516-1.152-1.152v0-3.84c0-0.636-0.516-1.152-1.152-1.152v0h-3.84c-0.636 0-1.152 0.516-1.152 1.152v0 3.84c0 0.636-0.516 1.152-1.152 1.152v0h-5.376c-0.636 0-1.152-0.516-1.152-1.152s0.516-1.152 1.152-1.152h0.384zM10.752 9.088c0-0.424 0.344-0.768 0.768-0.768v0h1.536c0.424 0 0.768 0.344 0.768 0.768v0 1.536c0 0.424-0.344 0.768-0.768 0.768v0h-1.536c-0.424 0-0.768-0.344-0.768-0.768v0-1.536zM11.52 14.464c-0.424 0-0.768 0.344-0.768 0.768v0 1.536c0 0.424 0.344 0.768 0.768 0.768v0h1.536c0.424 0 0.768-0.344 0.768-0.768v0-1.536c0-0.424-0.344-0.768-0.768-0.768v0h-1.536zM16.896 9.088c0-0.424 0.344-0.768 0.768-0.768h1.536c0.424 0 0.768 0.344 0.768 0.768v0 1.536c0 0.424-0.344 0.768-0.768 0.768v0h-1.536c-0.424 0-0.768-0.344-0.768-0.768v0-1.536zM17.664 14.464c-0.424 0-0.768 0.344-0.768 0.768v0 1.536c0 0.424 0.344 0.768 0.768 0.768v0h1.536c0.424 0 0.768-0.344 0.768-0.768v0-1.536c0-0.424-0.344-0.768-0.768-0.768v0h-1.536z"></path>
</symbol>
</defs>
</svg>
