<svg width="633" height="331" fill="none" xmlns="http://www.w3.org/2000/svg"><g clip-path="url('#a')" fill-rule="evenodd" clip-rule="evenodd" fill="#1A1A1A"><path d="M547.549 5.963c-.533-.761-1.302-.485-.823-3.779 1.793-5.395-.49 1.013-.278.097.265 1.592 1.243.817 1.842.73-.184.715-.432 1.867-.741 2.952ZM598.71 341.661c7.175-6.395 13.493-12.474 19.628-18.323 7.171 9.598 14.529 19.835 21.704 29.933-5.477 6.99-11.523 14.137-17.741 22.035-7.904-11.413-15.474-22.478-23.591-33.645ZM621.309 320.648c5.658-4.947 11.081-9.969 16.16-14.633 6.357 8.407 12.952 16.573 19.633 25.285a542.708 542.708 0 0 0-14.452 18.591c-7.121-9.802-14.32-19.914-21.344-29.243h.003ZM506.99 350.874c11.157-7.854 21.592-15.375 31.25-22.268 8.099 12.039 16.121 24.034 24.109 36.77-9.376 8.668-18.973 18.318-29.94 27.688-8.409-14.757-17.15-28.532-25.419-42.19ZM542.861 325.392c9.253-5.348 17.442-11.247 25.405-16.739 7.347 9.821 14.936 20.119 22.272 30.863-7.47 6.989-15.131 14.123-23.719 22.306-8.183-12.817-15.831-24.892-23.958-36.43ZM571.892 305.732c7.671-4.933 14.664-9.932 21.4-14.132 6.742 8.407 13.917 17.939 20.765 27.661-6.272 5.5-12.955 10.868-20.168 17.03-7.06-10.265-14.6-20.466-21.997-30.559ZM596.503 289.552c6.416-3.801 12.213-7.848 17.963-11.154 6.394 7.505 12.523 15.309 19.054 23.694-5.134 4.468-10.784 9.024-16.453 14.087-6.779-8.877-13.805-18.281-20.564-26.627ZM230.357 248.444c22.888-4.812 43.92-9.554 63.729-14.066 7.634 12.294 15.427 24.034 22.724 36.632-19.215 5.34-40.414 12.222-63.888 19.231-7.637-14.508-15.04-28.233-22.568-41.797h.003ZM362.355 234.561c15.979-3.538 30.037-7.026 44.029-9.664 6.862 9.279 14.334 18.89 21.784 28.967a3079.746 3079.746 0 0 0-43.379 13.506c-7.174-11.051-14.984-22.401-22.434-32.812v.003ZM381.155 162.34c12.726-.509 24.633-1.279 36.121-1.888 6.464 7.048 12.791 13.922 18.872 21.064-11.143 1.01-22.977 2.295-35.567 4.133-6.282-8.05-12.553-15.846-19.426-23.309ZM428.107 332.288c14.619-7.164 28.114-13.819 40.512-20.416 7.988 12.111 16.497 25.111 24.181 38.523-12.077 8.354-25.068 16.928-39.352 26.162-8.253-15.468-16.868-29.838-25.341-44.269ZM475.406 310.034c12.077-6.168 23.083-11.56 33.518-16.712 7.194 10.209 14.783 20.773 22.412 31.516-10.02 6.816-20.99 14.329-32.543 22.232-7.927-13.332-15.572-25.124-23.387-37.039v.003ZM515.36 289.566c9.643-4.441 18.749-8.77 27.372-13.077 6.882 8.805 13.794 18.098 20.715 27.646-8.164 5.644-16.707 11.037-26.032 16.421-7.228-10.209-14.7-20.657-22.055-30.988v-.002ZM547.719 273.967c7.838-4.424 15.341-7.688 22.785-10.921 6.478 8.233 13.125 16.645 19.956 25.147-7.04 3.944-14.401 8.523-21.82 13.608-6.874-9.409-14.053-18.84-20.921-27.834ZM573.762 262.141c6.614-3.198 13.145-6.204 19.502-8.864 5.63 7.092 11.586 14.159 17.465 21.229-5.773 3.569-11.885 7.411-18.084 11.53-6.377-8.094-12.815-16.194-18.88-23.895h-.003ZM615.779 242.688c5.254-1.904 9.842-4.039 14.399-6.14 4.902 5.515 10 11.306 14.697 16.762-4.139 2.666-8.164 5.536-13.103 8.064-5.179-6.22-10.53-12.504-15.993-18.688v.002ZM632.6 235.563c4.426-2.093 8.422-4.177 12.355-5.719 4.566 4.947 8.791 9.763 13.515 15.112-3.601 2.339-7.308 4.598-11.14 7.186-5.02-5.617-9.736-11.145-14.73-16.579ZM443.314 195.645c10.653-1.462 20.804-2.71 30.656-4.249 6.146 7.36 12.336 14.458 18.853 21.847-9.39 1.976-19.385 3.842-30.032 6.466-6.539-8.232-13.094-16.158-19.48-24.064h.003ZM449.03 126.179c9.187.479 17.911.9 26.219 1.293 5.123 5.071 10.193 10.215 15.422 15.125-8.311.05-16.628-.066-25.575-.188-5.19-5.492-10.683-10.862-16.063-16.23h-.003ZM270.649 337.619a3117.72 3117.72 0 0 1 65.22-25.772c7.949 14.661 16.458 30.415 24.217 47.293a2367.459 2367.459 0 0 1-64.461 32.405c-7.93-18.34-16.495-36.511-24.973-53.926h-.003ZM403.014 285.643c14.792-5.487 28.873-10.367 41.928-15.17a1138.528 1138.528 0 0 1 22.888 33.997c-12.478 6.372-26.222 12.844-40.266 19.391-8.183-12.817-16.35-26.01-24.547-38.215l-.003-.003ZM492.778 254.866c10.221-3.452 19.546-6.605 28.426-9.852 6.439 7.911 13.175 16.507 19.639 25.343-8.457 4.075-17.713 8.399-27.058 12.867-6.756-9.817-14.034-19.436-21.01-28.358h.003ZM526.277 243.444a816.683 816.683 0 0 1 23.995-7.629c6.366 7.499 12.545 15.111 18.911 22.683-7.23 3.081-14.596 6.176-22.565 10.026-6.904-8.842-13.518-17.357-20.341-25.08ZM553.547 234.982a1502.074 1502.074 0 0 0 20.592-6.766c5.588 6.611 11.179 13.108 16.893 19.848-6.179 2.76-12.704 5.858-19.343 8.842-6.216-7.477-12.353-14.865-18.139-21.927l-.003.003ZM578.57 226.873c6.012-1.807 11.901-3.546 17.281-5.276 5.619 6.248 10.953 12.061 16.215 18.309-5.044 1.985-10.474 4.236-16.419 7.07-5.608-7.111-11.516-13.774-17.077-20.103ZM598.487 221.038c5.466-1.503 10.363-3.225 15.285-4.637 4.822 5.196 9.739 10.782 14.321 16.194-4.446 1.941-9.017 4.097-14.324 5.894-4.927-5.617-10.159-11.699-15.279-17.451h-.003ZM616.392 215.56c4.71-1.265 9.145-2.362 13.331-3.582 4.418 4.808 8.964 9.539 13.158 14.248-3.832 1.453-8.032 3.167-12.202 5.223-4.663-5.45-9.462-10.635-14.287-15.889ZM631.652 211.374c3.991-1.096 7.809-2.259 11.463-3.532 4.084 4.387 8.206 8.761 12.055 13.027-3.216 1.539-6.767 3.067-10.413 4.498-4.362-4.606-8.674-9.342-13.108-13.993h.003ZM511.773 187.523c7.982-.814 15.666-1.431 23.036-2.237 5.449 5.855 11.006 11.851 16.55 17.764-7.11 1.19-14.209 2.616-22.18 4.227-5.815-6.713-11.567-13.39-17.406-19.754ZM538.156 184.755c6.949-.872 13.738-1.462 19.836-2.273a607.09 607.09 0 0 1 15.581 16.543c-6.037 1.168-12.267 2.347-18.995 3.421-5.34-5.738-10.97-11.856-16.422-17.691ZM561.019 182.147c6.338-.609 12.021-1.149 17.534-1.678 4.775 4.839 9.783 10.027 14.55 14.996-5.302.997-10.784 2.004-16.556 3.225-5.023-5.653-10.321-11.233-15.528-16.543ZM581.154 180.171c5.396-.515 10.519-.828 15.41-1.279 4.479 4.512 9.242 9.503 13.565 13.943-4.657.784-9.54 1.365-14.543 2.151-4.568-4.758-9.66-9.946-14.435-14.815h.003ZM598.958 178.717c4.722-.523 9.134-1.162 13.563-1.337 4.161 4.133 8.423 8.435 12.628 12.881-3.969.683-8.194 1.467-12.751 2.311-4.384-4.673-9.033-9.351-13.44-13.855ZM614.572 177.308c4.125-.393 7.93-.755 11.79-1.01 4.061 3.917 8.141 7.947 11.67 11.69-3.384.676-7.007 1.373-11.01 1.874a313.438 313.438 0 0 0-12.447-12.554h-.003ZM628.098 176.168c3.699-.377 7.303-.618 10.53-.966 3.732 3.626 7.406 7.366 11.038 10.978-3.041.712-6.528 1.075-9.803 1.556-3.83-3.784-7.623-7.651-11.765-11.565v-.003ZM633.756 153.87c-5.635-.488-11.338-.474-17.545-.756-1.165-.108-2.481-.205-3.841-.617 6.483.617 12.423.478 18.153.822 1.349.501 2.378.321 3.233.553v-.002ZM520.789 165.565c7.188-.456 14.321-.711 20.762-1.126a616.781 616.781 0 0 1 15.24 15.743c-6.369.639-13.155 1.256-19.914 2.04a573.168 573.168 0 0 0-16.085-16.659l-.003.002ZM544.684 164.259c6.433-.103 12.539-.233 18.273-.479 4.651 4.767 9.769 9.758 14.275 14.516-5.423.532-11.316.944-17.4 1.44-4.928-5.196-10.12-10.447-15.148-15.475v-.002ZM565.719 163.758c5.68-.139 11.017-.13 16.282-.255 4.471 4.249 8.93 8.77 13.262 13.426-4.945.268-10.059.625-15.391 1.248-4.437-4.736-9.485-9.749-14.156-14.422l.003.003ZM584.454 163.351c5.014-.103 9.688-.014 14.226-.161a777.48 777.48 0 0 1 12.517 12.258c-4.273.188-8.744.725-13.532 1.243-4.365-4.446-8.821-9.038-13.211-13.34ZM600.867 163.088c4.496.086 8.409-.125 12.509-.086 4.042 3.895 7.972 7.643 11.779 11.458-3.782.34-7.729.661-11.91.921-4.052-4.133-8.175-8.041-12.378-12.293ZM615.252 162.864c4.014-.045 7.651-.059 11.283-.189a825.817 825.817 0 0 1 10.942 10.752c-3.244.626-6.764.784-10.449 1.038-3.952-3.917-7.662-7.701-11.779-11.601h.003ZM628.229 162.717c3.39 0 6.834.152 9.772.072 3.401 3.175 6.884 6.574 10.327 9.83-2.958.174-6.001.421-9.215.8-3.475-3.596-7.23-7.12-10.884-10.702ZM502.779 146.437c7.561.08 14.858.188 21.675.357 4.975 4.977 9.937 9.763 14.837 14.699-6.706.224-13.761.559-20.843.864a3799.118 3799.118 0 0 1-15.669-15.917v-.003ZM527.637 147.018c6.656.022 13.097.313 19.09.509 4.71 4.571 9.454 9.141 14.022 13.681a330.13 330.13 0 0 0-18.367.327c-4.811-5.05-9.728-9.78-14.745-14.517ZM549.756 147.577c5.901.117 11.615.349 17.011.59 4.3 4.127 8.679 8.385 13.063 12.861-5.17.036-10.591.139-16.182.224a795.09 795.09 0 0 0-13.889-13.675h-.003ZM569.244 148.195c5.368.304 10.004.398 14.901.675 4.348 4.033 8.294 7.906 12.472 11.937-4.666.022-9.412-.028-14.496.072-4.108-4.286-8.495-8.543-12.877-12.684ZM586.656 149.081c4.459.085 8.827.21 13.172.465 4.025 3.872 7.877 7.549 11.611 11.167-3.893.196-8.082.224-12.642.124-4.033-4.047-8.069-7.839-12.141-11.756Z"></path><path d="M601.963 149.612c4.25.291 7.988.451 11.575.595 3.799 3.494 7.684 7.018 11.166 10.434-3.551.058-7.264.174-11.336.072a1438.634 1438.634 0 0 1-11.405-11.101ZM615.774 150.628c3.779.313 7.124.487 10.532.689 3.476 3.283 7.11 6.669 10.469 10.057-3.208-.246-6.583-.29-10.106-.434a1575.77 1575.77 0 0 1-10.895-10.309v-.003ZM511.611 131.054c6.921.393 13.471.661 19.803 1.176 4.694 4.468 9.226 8.792 13.808 13.448-6.249-.42-12.498-.465-19.271-.661-4.601-4.665-9.407-9.321-14.337-13.963h-.003ZM534.583 132.676c6.198.282 11.895.814 17.643 1.417 4.367 4.012 8.598 8.1 12.929 12.264-5.582-.465-11.017-.479-17.054-.668-4.549-4.44-9.12-8.958-13.518-13.013ZM554.879 134.317c5.457.421 10.516.958 15.639 1.512 4.147 3.748 8.152 7.651 12.325 11.566-4.939-.502-9.789-.604-15.213-1.003-4.066-3.922-8.389-7.969-12.751-12.075ZM573.013 136.009c4.827.429 9.373.689 13.885 1.118 3.897 3.632 7.679 7.222 11.545 10.904-4.343-.224-8.626-.415-13.434-.631-4.109-3.864-7.916-7.621-11.996-11.391ZM589.142 137.398c4.075.269 8.133.654 12.308 1.243 3.665 3.342 7.336 6.824 10.901 10.157-3.797-.183-7.732-.559-11.779-.662-3.944-3.684-7.737-7.178-11.43-10.738ZM613.923 141.241c3.584.443 7.018.85 10.17 1.126 3.239 2.971 6.695 6.118 10.029 9.244-3.169-.283-6.433-.358-9.689-.56-3.308-3.241-6.884-6.516-10.51-9.808v-.002ZM626.027 142.534c3.072.268 6.001.465 8.844.822 2.977 2.862 5.978 5.536 8.841 8.332-2.514-.036-5.385-.241-8.125-.326-3.06-2.849-6.38-5.952-9.56-8.828ZM519.097 118.384c6.227.733 12.231 1.439 18.281 2.159 4.287 3.98 8.471 7.839 12.874 11.887-5.936-.77-11.508-1.105-17.86-1.789-4.339-4.191-8.849-8.138-13.295-12.257ZM540.16 120.833c5.544.604 11.113 1.387 16.405 2.049 3.928 3.698 8.019 7.433 12.119 11.261-5.184-.573-10.19-.974-15.784-1.439-4.395-4.111-8.593-7.934-12.74-11.873v.002ZM559.099 123.178c4.922.559 9.75 1.221 14.7 1.963 3.771 3.532 7.375 6.765 11.313 10.384-4.507-.43-9.109-.792-13.95-1.113-4.022-3.851-8.18-7.674-12.063-11.234ZM575.953 125.476c4.37.667 8.738 1.243 12.885 1.802 3.604 3.3 7.372 6.61 10.954 9.86-4.114-.42-8.164-.863-12.434-1.345-3.95-3.568-7.687-6.945-11.405-10.317ZM602.205 130.118c3.76.604 7.241 1.019 10.511 1.44 3.378 3.086 6.787 6.126 9.989 9.234-3.216-.334-6.508-.667-10.159-1.132-3.398-3.153-6.781-6.248-10.341-9.539v-.003ZM615.141 132.485c3.327.443 6.293.908 9.317 1.467a1810.6 1810.6 0 0 1 9.532 8.543c-2.837-.371-5.906-.604-8.974-.858a444.16 444.16 0 0 0-9.878-9.155l.003.003ZM505.738 103.676c6.564 1.027 12.763 1.943 18.722 2.97 4.281 3.555 8.342 7.209 12.734 11.212-6.006-.917-12.071-1.57-18.267-2.37-4.417-4.075-8.779-7.942-13.186-11.815l-.003.003ZM527.289 106.942c5.867 1.008 11.469 1.794 16.966 2.744 3.807 3.524 7.795 6.923 11.837 10.616-5.332-.77-10.837-1.445-16.403-2.289-4.077-3.699-8.152-7.303-12.4-11.071ZM512.093 93.846c5.967 1.05 11.687 2.2 17.278 3.242 4.022 3.551 7.954 6.959 11.893 10.378-5.276-.903-11.004-1.775-17.013-2.793-3.969-3.524-8.111-7.167-12.161-10.827h.003ZM447.186 97.575c8.584 1.182 16.578 2.28 24.181 3.07 5.059 4.349 9.691 8.811 14.173 12.997-7.38-.618-15.24-1.504-23.574-2.398a663.845 663.845 0 0 0-14.777-13.666l-.003-.003ZM630.39 191.7c3.86-.595 7.405-1.265 10.789-1.976a858.04 858.04 0 0 1 11.879 12.285c-3.105.886-6.467 1.99-9.917 3.029a2093.82 2093.82 0 0 0-12.751-13.341v.003ZM616.217 194.67c4.389-.747 8.467-1.591 12.444-2.397 4.254 4.512 8.484 8.856 12.743 13.346-3.645 1.185-7.539 2.339-11.527 3.502-4.51-4.906-9.207-9.822-13.66-14.451ZM598.287 197.264c5.039-1.002 9.864-1.752 14.351-2.405 4.604 4.579 9.276 9.589 13.852 14.481-4.245 1.01-8.827 2.098-13.398 3.604-5.033-5.515-9.825-10.636-14.808-15.68h.003ZM579.849 200.52c5.678-1.105 11.269-2.353 16.174-3.319 5.028 5.268 10.118 10.461 14.923 15.845-4.842 1.476-9.964 3.087-15.555 4.404-5.123-5.683-10.288-11.197-15.542-16.927v-.003ZM557.934 204.423c6.575-1.141 13.097-2.129 18.73-3.748 5.304 5.835 10.725 11.721 15.755 17.451-5.591 1.614-11.463 3.255-17.681 4.816-5.686-6.364-11.13-12.387-16.807-18.519h.003ZM533.103 209.661c7.726-1.592 14.83-3.015 21.508-4.526 5.734 6.283 11.525 12.562 17.183 19.109-6.968 1.924-13.395 4.324-20.77 6.203-6.092-6.99-12.115-13.949-17.921-20.786ZM504.403 216.213a1211.394 1211.394 0 0 0 25.118-5.188c6.026 6.901 12.038 13.927 18.059 20.795-7.54 2.486-15.525 4.919-23.903 7.411-6.628-8.059-12.927-15.635-19.274-23.018ZM205.685 176.32c5.689-4.534 11.257-9.11 16.347-13.288 8.222 4.643 16.408 8.967 24.675 13.869-4.613 4.803-9.181 9.839-14.703 14.99-8.913-5.254-17.821-10.477-26.316-15.571h-.003ZM484.726 167.013c2.263-2.273 4.473-4.388 6.773-6.198 3.202 2.237 6.539 4.62 9.833 6.887-2.046 2.151-3.977 4.463-6.054 7.062-3.545-2.644-7.082-5.268-10.555-7.751h.003ZM574.289 83.05a51.977 51.977 0 0 0 2.433-4.133c2.882 2.378 5.959 4.952 8.981 7.46-.471 1.609-1.138 3.078-1.89 4.654l-9.521-7.981h-.003ZM106.428 315.482c7.11-5.551 13.816-10.868 20.33-15.549 8.481 2.602 16.804 5.683 25.536 8.623-6.333 5.115-12.565 10.644-18.97 16.601-9.108-3.416-18.426-6.494-26.899-9.678l.003.003ZM553.993 101.054c.7-.767 1.251-1.514 1.8-2.234 1.873 1.357 3.758 2.688 5.578 4.017-.421.822-.856 1.788-1.344 2.597-2.015-1.454-3.955-2.896-6.034-4.382v.002ZM489.453 65.973c1.689-.717 3.289-1.351 4.872-1.935a288.703 288.703 0 0 1 7.216 5.06c-1.332.8-2.796 1.511-4.459 2.43-2.487-1.935-5.059-3.742-7.629-5.553v-.002ZM130.225 131.665c6.695-2.746 12.919-5.143 18.833-7.402 7.648 3.162 14.889 6.19 21.818 9.401-5.343 2.66-10.97 5.384-17.267 8.734-8.082-3.757-15.937-7.483-23.384-10.733ZM516.831 61.693c1.02-.479 1.784-1.107 2.592-1.58 1.946 1.267 3.799 2.698 5.672 4.08-.685.606-1.318 1.323-2.146 1.877-1.865-1.42-3.988-2.924-6.118-4.377ZM559.392 51.234c.54-.393 1.131-.694 1.663-1.057 1.402 1.082 2.938 2.2 4.284 3.233-.465.421-.869.847-1.285 1.335-1.535-1.155-3.13-2.331-4.662-3.51ZM101.286 221.78c4.766-2.273 8.623-4.418 12.693-6.472 5.975 1.685 11.697 3.211 17.4 4.861-3.498 2.106-7.459 4.562-11.65 6.887-6.246-1.694-12.364-3.538-18.443-5.276ZM452.021 54.977c1.672-.493 3.381-.83 4.827-1.334 2.328 1.514 4.786 3.086 6.988 4.545a77.578 77.578 0 0 1-4.264 1.714c-2.317-1.586-5.026-3.336-7.551-4.925ZM513.646 17.545c1.062-.197 2.124-.366 3.166-.418 1.75 1.107 3.417 2.372 5.092 3.585-.992.171-1.99.36-2.99.578a229.217 229.217 0 0 0-5.268-3.745ZM540.085 63.4c.964-.304 1.914-.52 2.804-.79a213.72 213.72 0 0 0 4.763 3.316c-.895.315-1.72.608-2.62.93-1.695-1.174-3.258-2.279-4.95-3.455h.003ZM562.809 88.099c.964-.316 1.867-.678 2.753-.91 1.411.954 2.96 1.979 4.449 2.93-.895.316-1.79.649-2.623 1.025-1.48-1.005-3.032-2.015-4.579-3.045ZM412.775 101.309c2.093-.545 4.1-1.102 6.029-1.617 2.539 1.365 5.011 2.663 7.69 4.092-1.982.451-3.927 1.068-5.87 1.641-2.525-1.406-5.29-2.801-7.849-4.116ZM586.159 109.716c.895-.313 1.798-.725 2.62-1.055 1.386.922 2.634 1.767 3.955 2.666-.752.349-1.51.742-2.341 1.163-1.388-.958-2.781-1.794-4.234-2.777v.003ZM574.804 73.073c.784-.202 1.55-.28 2.328-.424 1.14.775 2.335 1.642 3.484 2.37-.641.138-1.422.338-2.074.56-1.265-.873-2.467-1.714-3.738-2.503v-.003ZM0 272.785c6.36-1.91 13.086-4.178 19.884-6.146 6.296 1.346 13.097 2.303 19.49 3.48a460.81 460.81 0 0 0-18.846 6.22C13.384 275.14 6.776 274.036 0 272.787v-.002ZM488.798 28.959c1.402.055 2.665.069 3.927.08 1.48.938 3.024 1.918 4.619 2.967-1.257-.058-2.408.047-3.677.036-1.594-1.046-3.191-2.104-4.866-3.084h-.003ZM314.123 149.496c3.166-.77 6.558-1.229 9.788-1.927 3.183 1.105 6.079 2.071 8.925 3.206-2.932.537-6.107 1.292-9.421 2.048-3.096-1.14-6.276-2.237-9.289-3.327h-.003ZM324.932 206.848c2.857-1.78 5.683-3.552 8.526-5.094 3.98 1.526 8.038 3.32 12.124 5.05-2.645 1.757-5.273 3.471-7.929 5.47-4.429-2.005-8.624-3.685-12.721-5.429v.003ZM394.107 136.026c2.575-1.468 4.95-2.777 7.154-4.053a732.097 732.097 0 0 1 10.449 5.891c-2.218 1.359-4.2 2.992-6.672 4.396-3.752-2.101-7.333-4.191-10.931-6.234Z"></path></g><defs><clipPath id="a"><path fill="#fff" transform="matrix(-1 0 0 1 725 0)" d="M0 0h725v394H0z"></path></clipPath></defs></svg>