<svg width="16" height="16" fill="none" xmlns="http://www.w3.org/2000/svg"><g clip-path="url('#a')"><path d="M8 15.208a7.2 7.2 0 1 0 0-14.4 7.2 7.2 0 0 0 0 14.4Z" fill="#333"></path><path d="M.8 22.4A7.2 7.2 0 1 0 .8 8a7.2 7.2 0 0 0 0 14.4Z" fill="#141414"></path><path d="M15.2 22.4a7.2 7.2 0 1 0 0-14.4 7.2 7.2 0 0 0 0 14.4ZM.8 8a7.2 7.2 0 1 0 0-14.4A7.2 7.2 0 0 0 .8 8Z" fill="#141414"></path><path d="M15.2 8a7.2 7.2 0 1 0 0-14.4 7.2 7.2 0 0 0 0 14.4Z" fill="#141414"></path></g><defs><clipPath id="a"><path fill="#fff" transform="translate(.8 .8)" d="M0 0h14.4v14.4H0z"></path></clipPath></defs></svg>