<svg width="24" height="24" fill="none" xmlns="http://www.w3.org/2000/svg"><g clip-path="url('#a')"><path d="M12 24.013c6.627 0 12-5.372 12-12 0-6.627-5.373-12-12-12s-12 5.373-12 12c0 6.628 5.373 12 12 12Z" fill="#666"></path><path d="M0 36c6.627 0 12-5.373 12-12S6.627 12 0 12s-12 5.373-12 12 5.373 12 12 12ZM24 36c6.627 0 12-5.373 12-12s-5.373-12-12-12-12 5.373-12 12 5.373 12 12 12ZM0 12c6.627 0 12-5.373 12-12S6.627-12 0-12-12-6.627-12 0s5.373 12 12 12ZM24 12c6.627 0 12-5.373 12-12s-5.373-12-12-12S12-6.627 12 0s5.373 12 12 12Z" fill="#141414"></path></g><defs><clipPath id="a"><path fill="#fff" d="M0 0h24v24H0z"></path></clipPath></defs></svg>